<svg width="18" height="18" viewBox="0 0 18 18" fill="none" xmlns="http://www.w3.org/2000/svg">
<g id="Edit">
<path id="Fill 1" opacity="0.4" d="M16.9926 15.9534H11.2983C10.7428 15.9534 10.2909 16.4124 10.2909 16.9767C10.2909 17.5422 10.7428 18.0001 11.2983 18.0001H16.9926C17.5482 18.0001 18 17.5422 18 16.9767C18 16.4124 17.5482 15.9534 16.9926 15.9534Z" fill="white" fill-opacity="0.5"/>
<path id="Fill 3" d="M7.30902 3.90385L12.7049 8.26394C12.835 8.36821 12.8573 8.55956 12.7557 8.69286L6.35874 17.0282C5.95662 17.5431 5.36402 17.8344 4.72908 17.8452L1.23696 17.8882C1.05071 17.8903 0.887748 17.7613 0.845419 17.5764L0.0517547 14.1258C-0.0858138 13.4915 0.0517547 12.8358 0.453878 12.3306L6.88256 3.95545C6.98627 3.82108 7.1778 3.79743 7.30902 3.90385Z" fill="white" fill-opacity="0.5"/>
<path id="Fill 5" opacity="0.4" d="M15.1205 5.66544L14.0803 6.96401C13.9755 7.09623 13.7872 7.11773 13.657 7.01238C12.3924 5.98901 9.1543 3.36285 8.25587 2.63509C8.12465 2.52759 8.10666 2.33625 8.21248 2.20295L9.21567 0.957057C10.1257 -0.214663 11.7131 -0.322161 12.9935 0.699064L14.4644 1.87078C15.0676 2.34377 15.4698 2.96726 15.6073 3.62299C15.7661 4.3443 15.5967 5.0527 15.1205 5.66544Z" fill="white" fill-opacity="0.5"/>
</g>
</svg>
