<svg width="20" height="20" viewBox="0 0 20 20" fill="none" xmlns="http://www.w3.org/2000/svg">
<g id="Image">
<path id="Fill 1" opacity="0.4" d="M14.3328 20H5.66618C2.2769 20 0 17.6229 0 14.0843V5.91672C0 2.37811 2.2769 0 5.66618 0H14.3338C17.7231 0 20 2.37811 20 5.91672V14.0843C20 17.6229 17.7231 20 14.3328 20Z" fill="white" fill-opacity="0.5"/>
<path id="Combined Shape" fill-rule="evenodd" clip-rule="evenodd" d="M9.24497 6.67496C9.24497 8.04497 8.12997 9.15997 6.75997 9.15997C5.38897 9.15997 4.27497 8.04497 4.27497 6.67496C4.27497 5.30496 5.38897 4.18896 6.75997 4.18896C8.12997 4.18896 9.24497 5.30496 9.24497 6.67496ZM17.4004 12.0876C17.6334 12.3136 17.8004 12.5716 17.9104 12.8466C18.2434 13.6786 18.0704 14.6786 17.7144 15.5026C17.2924 16.4836 16.4844 17.2246 15.4664 17.5486C15.0144 17.6936 14.5404 17.7556 14.0674 17.7556H5.68637C4.85237 17.7556 4.11437 17.5616 3.50937 17.1976C3.13037 16.9696 3.06337 16.4446 3.34437 16.1026C3.81437 15.5326 4.27837 14.9606 4.74637 14.3836C5.63837 13.2796 6.23937 12.9596 6.90737 13.2406C7.17837 13.3566 7.45037 13.5316 7.73037 13.7156C8.47637 14.2096 9.51337 14.8876 10.8794 14.1516C11.8131 13.641 12.3551 12.7673 12.8269 12.0069L12.8364 11.9916C12.8681 11.9407 12.8996 11.8898 12.931 11.8391C13.0914 11.5799 13.2494 11.3246 13.4284 11.0896C13.6504 10.7986 14.4744 9.88857 15.5394 10.5366C16.2184 10.9446 16.7894 11.4966 17.4004 12.0876Z" fill="white" fill-opacity="0.5"/>
</g>
</svg>
