<svg width="253" height="51" viewBox="0 0 253 51" fill="none" xmlns="http://www.w3.org/2000/svg">
<path d="M31.949 27.54C28.499 27.54 25.5881 28.1038 25.5881 30.2795C25.5881 32.4562 28.5178 33.0001 31.949 33.0001C35.399 33.0001 38.31 32.4364 38.31 30.2606C38.31 28.084 35.3802 27.54 31.949 27.54Z" fill="white" fill-opacity="0.5"/>
<path opacity="0.4" d="M31.949 25.467C34.2851 25.467 36.1583 23.5831 36.1583 21.2335C36.1583 18.8831 34.2851 17 31.949 17C29.6129 17 27.7397 18.8831 27.7397 21.2335C27.7397 23.5831 29.6129 25.467 31.949 25.467Z" fill="white" fill-opacity="0.5"/>
<path opacity="0.4" d="M41.0879 22.2192C41.6923 19.8418 39.9203 17.7065 37.6639 17.7065C37.4186 17.7065 37.184 17.7336 36.9548 17.7795C36.9243 17.7867 36.8903 17.802 36.8724 17.829C36.8518 17.8632 36.867 17.9092 36.8894 17.9389C37.5672 18.8953 37.9567 20.0597 37.9567 21.3097C37.9567 22.5074 37.5995 23.6241 36.9727 24.5508C36.9082 24.6462 36.9655 24.775 37.0792 24.7948C37.2368 24.8227 37.398 24.8371 37.5627 24.8416C39.2058 24.8849 40.6805 23.8213 41.0879 22.2192Z" fill="white" fill-opacity="0.5"/>
<path d="M42.8093 27.817C42.5084 27.1722 41.7823 26.73 40.6782 26.513C40.1571 26.3851 38.7468 26.205 37.4351 26.2293C37.4154 26.232 37.4046 26.2455 37.4028 26.2545C37.4002 26.2671 37.4055 26.2887 37.4315 26.3022C38.0377 26.6039 40.381 27.916 40.0864 30.6834C40.0738 30.8032 40.1696 30.9068 40.2887 30.8888C40.8654 30.8059 42.349 30.4853 42.8093 29.4866C43.0636 28.9589 43.0636 28.3456 42.8093 27.817Z" fill="white" fill-opacity="0.5"/>
<path opacity="0.4" d="M27.0448 17.7797C26.8165 17.7329 26.581 17.7068 26.3357 17.7068C24.0793 17.7068 22.3073 19.842 22.9125 22.2195C23.3191 23.8216 24.7938 24.8851 26.4369 24.8419C26.6016 24.8374 26.7637 24.8221 26.9204 24.7951C27.0341 24.7753 27.0914 24.6465 27.0269 24.551C26.4001 23.6234 26.0429 22.5077 26.0429 21.3099C26.0429 20.059 26.4333 18.8946 27.1111 17.9391C27.1326 17.9094 27.1487 17.8635 27.1272 17.8293C27.1093 17.8013 27.0762 17.7869 27.0448 17.7797Z" fill="white" fill-opacity="0.5"/>
<path d="M23.3216 26.5127C22.2175 26.7297 21.4922 27.1719 21.1914 27.8167C20.9362 28.3453 20.9362 28.9586 21.1914 29.4872C21.6516 30.4851 23.1353 30.8066 23.712 30.8885C23.831 30.9065 23.926 30.8038 23.9134 30.6832C23.6188 27.9167 25.9621 26.6046 26.5692 26.3029C26.5943 26.2885 26.5996 26.2677 26.5969 26.2542C26.5951 26.2452 26.5853 26.2317 26.5656 26.2299C25.2529 26.2047 23.8436 26.3848 23.3216 26.5127Z" fill="white" fill-opacity="0.5"/>
<path opacity="0.6" d="M61.6662 19.8182H63.2074V26.5149C63.2074 27.2275 63.04 27.8589 62.7053 28.4091C62.3705 28.956 61.8999 29.3868 61.2933 29.7017C60.6868 30.0133 59.9759 30.169 59.1605 30.169C58.3485 30.169 57.6392 30.0133 57.0327 29.7017C56.4261 29.3868 55.9555 28.956 55.6207 28.4091C55.286 27.8589 55.1186 27.2275 55.1186 26.5149V19.8182H56.6548V26.3906C56.6548 26.8513 56.7559 27.2607 56.9581 27.6186C57.1636 27.9766 57.4536 28.2583 57.8281 28.4638C58.2027 28.666 58.6468 28.767 59.1605 28.767C59.6776 28.767 60.1233 28.666 60.4979 28.4638C60.8757 28.2583 61.1641 27.9766 61.3629 27.6186C61.5651 27.2607 61.6662 26.8513 61.6662 26.3906V19.8182ZM71.0439 24.228L69.6966 24.4666C69.6402 24.2943 69.5507 24.1302 69.4281 23.9744C69.3088 23.8187 69.1464 23.6911 68.9409 23.5916C68.7354 23.4922 68.4785 23.4425 68.1703 23.4425C67.7493 23.4425 67.398 23.5369 67.1163 23.7259C66.8346 23.9115 66.6937 24.1518 66.6937 24.4467C66.6937 24.7019 66.7882 24.9074 66.9771 25.0632C67.166 25.219 67.4709 25.3466 67.8919 25.446L69.1049 25.7244C69.8076 25.8868 70.3313 26.1371 70.676 26.4751C71.0207 26.8132 71.193 27.2524 71.193 27.7926C71.193 28.25 71.0604 28.6577 70.7953 29.0156C70.5334 29.3703 70.1672 29.6487 69.6966 29.8509C69.2292 30.053 68.6873 30.1541 68.0708 30.1541C67.2157 30.1541 66.5181 29.9718 65.9778 29.6072C65.4376 29.2393 65.1061 28.7173 64.9835 28.0412L66.4203 27.8224C66.5098 28.197 66.6937 28.4804 66.9721 28.6726C67.2505 28.8615 67.6135 28.956 68.0609 28.956C68.5481 28.956 68.9376 28.8549 69.2292 28.6527C69.5209 28.4472 69.6667 28.197 69.6667 27.902C69.6667 27.6634 69.5772 27.4628 69.3983 27.3004C69.2226 27.138 68.9525 27.0154 68.5879 26.9325L67.2953 26.6491C66.5827 26.4867 66.0557 26.2282 65.7143 25.8736C65.3762 25.5189 65.2072 25.0698 65.2072 24.5263C65.2072 24.0755 65.3332 23.6811 65.585 23.343C65.8369 23.005 66.185 22.7415 66.6291 22.5526C67.0732 22.3603 67.582 22.2642 68.1554 22.2642C68.9806 22.2642 69.6303 22.4432 70.1042 22.8011C70.5782 23.1558 70.8914 23.6314 71.0439 24.228ZM76.1186 30.1541C75.3662 30.1541 74.7183 29.9934 74.1747 29.6719C73.6345 29.3471 73.2169 28.8913 72.9219 28.3047C72.6302 27.7147 72.4844 27.0237 72.4844 26.2315C72.4844 25.4493 72.6302 24.7599 72.9219 24.1634C73.2169 23.5668 73.6278 23.1011 74.1548 22.7663C74.6851 22.4316 75.3049 22.2642 76.0142 22.2642C76.4451 22.2642 76.8627 22.3355 77.267 22.478C77.6714 22.6205 78.0343 22.8442 78.3558 23.1491C78.6773 23.4541 78.9309 23.8501 79.1165 24.3374C79.3021 24.8213 79.3949 25.4096 79.3949 26.1023V26.6293H73.3246V25.5156H77.9382C77.9382 25.1245 77.8587 24.7782 77.6996 24.4766C77.5405 24.1716 77.3168 23.9313 77.0284 23.7557C76.7434 23.58 76.4086 23.4922 76.0241 23.4922C75.6065 23.4922 75.242 23.5949 74.9304 23.8004C74.6222 24.0026 74.3835 24.2678 74.2145 24.5959C74.0488 24.9207 73.9659 25.2737 73.9659 25.6548V26.5249C73.9659 27.0353 74.0554 27.4695 74.2344 27.8274C74.4167 28.1854 74.6702 28.4588 74.995 28.6477C75.3198 28.8333 75.6993 28.9261 76.1335 28.9261C76.4152 28.9261 76.6721 28.8864 76.9041 28.8068C77.1361 28.724 77.3366 28.6013 77.5057 28.4389C77.6747 28.2765 77.804 28.076 77.8935 27.8374L79.3004 28.0909C79.1877 28.5052 78.9856 28.8681 78.6939 29.1797C78.4055 29.4879 78.0426 29.7282 77.6051 29.9006C77.1709 30.0696 76.6754 30.1541 76.1186 30.1541ZM81.0442 30V22.3636H82.481V23.5767H82.5605C82.6998 23.1657 82.945 22.8426 83.2963 22.6072C83.651 22.3686 84.052 22.2493 84.4995 22.2493C84.5923 22.2493 84.7016 22.2526 84.8276 22.2592C84.9569 22.2659 85.0579 22.2741 85.1309 22.2841V23.706C85.0712 23.6894 84.9651 23.6712 84.8127 23.6513C84.6602 23.6281 84.5078 23.6165 84.3553 23.6165C84.004 23.6165 83.6908 23.6911 83.4157 23.8402C83.1439 23.986 82.9284 24.1899 82.7694 24.4517C82.6103 24.7102 82.5307 25.0052 82.5307 25.3366V30H81.0442ZM92.1396 24.228L90.7923 24.4666C90.7359 24.2943 90.6464 24.1302 90.5238 23.9744C90.4045 23.8187 90.2421 23.6911 90.0366 23.5916C89.8311 23.4922 89.5742 23.4425 89.266 23.4425C88.8451 23.4425 88.4937 23.5369 88.212 23.7259C87.9303 23.9115 87.7894 24.1518 87.7894 24.4467C87.7894 24.7019 87.8839 24.9074 88.0728 25.0632C88.2617 25.219 88.5666 25.3466 88.9876 25.446L90.2006 25.7244C90.9033 25.8868 91.427 26.1371 91.7717 26.4751C92.1164 26.8132 92.2887 27.2524 92.2887 27.7926C92.2887 28.25 92.1561 28.6577 91.891 29.0156C91.6291 29.3703 91.2629 29.6487 90.7923 29.8509C90.3249 30.053 89.783 30.1541 89.1665 30.1541C88.3114 30.1541 87.6138 29.9718 87.0735 29.6072C86.5333 29.2393 86.2018 28.7173 86.0792 28.0412L87.516 27.8224C87.6055 28.197 87.7894 28.4804 88.0678 28.6726C88.3462 28.8615 88.7092 28.956 89.1566 28.956C89.6438 28.956 90.0333 28.8549 90.3249 28.6527C90.6166 28.4472 90.7624 28.197 90.7624 27.902C90.7624 27.6634 90.6729 27.4628 90.494 27.3004C90.3183 27.138 90.0482 27.0154 89.6836 26.9325L88.391 26.6491C87.6784 26.4867 87.1514 26.2282 86.81 25.8736C86.4719 25.5189 86.3029 25.0698 86.3029 24.5263C86.3029 24.0755 86.4289 23.6811 86.6808 23.343C86.9326 23.005 87.2807 22.7415 87.7248 22.5526C88.1689 22.3603 88.6777 22.2642 89.2511 22.2642C90.0763 22.2642 90.726 22.4432 91.1999 22.8011C91.6739 23.1558 91.9871 23.6314 92.1396 24.228Z" fill="white"/>
</svg>
