<svg width="253" height="51" viewBox="0 0 253 51" fill="none" xmlns="http://www.w3.org/2000/svg">
<path d="M32.012 27.8299C30.4075 27.8299 29.1096 26.5799 29.1096 25.0099C29.1096 23.4399 30.4075 22.1799 32.012 22.1799C33.6165 22.1799 34.8837 23.4399 34.8837 25.0099C34.8837 26.5799 33.6165 27.8299 32.012 27.8299Z" fill="white" fill-opacity="0.5"/>
<path opacity="0.4" d="M41.23 27.37C41.0359 27.07 40.7599 26.77 40.4023 26.58C40.1161 26.44 39.9322 26.21 39.7686 25.94C39.2474 25.08 39.554 23.95 40.4227 23.44C41.4447 22.87 41.7717 21.6 41.1789 20.61L40.4942 19.43C39.9117 18.44 38.6343 18.09 37.6225 18.67C36.7232 19.15 35.5684 18.83 35.0472 17.98C34.8837 17.7 34.7917 17.4 34.8121 17.1C34.8428 16.71 34.7202 16.34 34.5362 16.04C34.1581 15.42 33.4734 15 32.7171 15H31.2762C30.5301 15.02 29.8454 15.42 29.4673 16.04C29.2731 16.34 29.1607 16.71 29.1812 17.1C29.2016 17.4 29.1096 17.7 28.9461 17.98C28.4249 18.83 27.2701 19.15 26.381 18.67C25.359 18.09 24.0918 18.44 23.4991 19.43L22.8144 20.61C22.2319 21.6 22.5589 22.87 23.5706 23.44C24.4393 23.95 24.7459 25.08 24.2349 25.94C24.0612 26.21 23.8772 26.44 23.5911 26.58C23.2436 26.77 22.937 27.07 22.7735 27.37C22.3954 27.99 22.4158 28.77 22.7939 29.42L23.4991 30.62C23.8772 31.26 24.5824 31.66 25.3182 31.66C25.6656 31.66 26.0744 31.56 26.4014 31.36C26.6569 31.19 26.9635 31.13 27.3008 31.13C28.3125 31.13 29.1607 31.96 29.1812 32.95C29.1812 34.1 30.1214 35 31.3068 35H32.6967C33.8719 35 34.8121 34.1 34.8121 32.95C34.8428 31.96 35.691 31.13 36.7028 31.13C37.0298 31.13 37.3364 31.19 37.6021 31.36C37.9291 31.56 38.3277 31.66 38.6854 31.66C39.411 31.66 40.1161 31.26 40.4942 30.62L41.2096 29.42C41.5775 28.75 41.6082 27.99 41.23 27.37Z" fill="white" fill-opacity="0.5"/>
<path opacity="0.6" d="M60.6719 22.4929C60.6188 22.0223 60.4001 21.6577 60.0156 21.3991C59.6312 21.1373 59.1473 21.0064 58.5639 21.0064C58.1463 21.0064 57.785 21.0727 57.4801 21.2053C57.1752 21.3345 56.9382 21.5135 56.7692 21.7422C56.6035 21.9676 56.5206 22.2244 56.5206 22.5128C56.5206 22.7547 56.5769 22.9635 56.6896 23.1392C56.8056 23.3149 56.9564 23.4624 57.142 23.5817C57.331 23.6977 57.5331 23.7955 57.7486 23.875C57.964 23.9512 58.1712 24.0142 58.37 24.0639L59.3643 24.3224C59.6892 24.402 60.0223 24.5097 60.3636 24.6456C60.705 24.7815 61.0215 24.9605 61.3132 25.1825C61.6049 25.4046 61.8402 25.6797 62.0192 26.0078C62.2015 26.3359 62.2926 26.7287 62.2926 27.1861C62.2926 27.7628 62.1435 28.2749 61.8452 28.7223C61.5502 29.1697 61.121 29.5227 60.5575 29.7812C59.9974 30.0398 59.3196 30.169 58.5241 30.169C57.7618 30.169 57.1023 30.0481 56.5455 29.8061C55.9886 29.5642 55.5528 29.2211 55.2379 28.777C54.9231 28.3295 54.7491 27.7992 54.7159 27.1861H56.2571C56.2869 27.554 56.4063 27.8606 56.6151 28.1058C56.8272 28.3478 57.0973 28.5284 57.4254 28.6477C57.7569 28.7637 58.1198 28.8217 58.5142 28.8217C58.9484 28.8217 59.3345 28.7538 59.6726 28.6179C60.014 28.4787 60.2824 28.2865 60.478 28.0412C60.6735 27.7926 60.7713 27.5026 60.7713 27.1712C60.7713 26.8696 60.6851 26.6226 60.5128 26.4304C60.3438 26.2382 60.1134 26.0791 59.8217 25.9531C59.5334 25.8272 59.2069 25.7161 58.8423 25.62L57.6392 25.2919C56.8239 25.0698 56.1776 24.7434 55.7003 24.3125C55.2263 23.8816 54.9893 23.3116 54.9893 22.6023C54.9893 22.0156 55.1484 21.5036 55.4666 21.0661C55.7848 20.6286 56.2157 20.2888 56.7592 20.0469C57.3028 19.8016 57.916 19.679 58.5987 19.679C59.2881 19.679 59.8963 19.8 60.4233 20.0419C60.9536 20.2839 61.3712 20.617 61.6761 21.0412C61.9811 21.4621 62.1402 21.946 62.1534 22.4929H60.6719ZM67.3002 30.1541C66.5479 30.1541 65.8999 29.9934 65.3564 29.6719C64.8161 29.3471 64.3985 28.8913 64.1035 28.3047C63.8118 27.7147 63.666 27.0237 63.666 26.2315C63.666 25.4493 63.8118 24.7599 64.1035 24.1634C64.3985 23.5668 64.8095 23.1011 65.3365 22.7663C65.8668 22.4316 66.4866 22.2642 67.1958 22.2642C67.6267 22.2642 68.0443 22.3355 68.4487 22.478C68.853 22.6205 69.216 22.8442 69.5375 23.1491C69.859 23.4541 70.1125 23.8501 70.2981 24.3374C70.4837 24.8213 70.5765 25.4096 70.5765 26.1023V26.6293H64.5062V25.5156H69.1199C69.1199 25.1245 69.0403 24.7782 68.8812 24.4766C68.7221 24.1716 68.4984 23.9313 68.21 23.7557C67.925 23.58 67.5903 23.4922 67.2058 23.4922C66.7882 23.4922 66.4236 23.5949 66.112 23.8004C65.8038 24.0026 65.5652 24.2678 65.3961 24.5959C65.2304 24.9207 65.1475 25.2737 65.1475 25.6548V26.5249C65.1475 27.0353 65.237 27.4695 65.416 27.8274C65.5983 28.1854 65.8519 28.4588 66.1767 28.6477C66.5015 28.8333 66.881 28.9261 67.3152 28.9261C67.5969 28.9261 67.8538 28.8864 68.0858 28.8068C68.3178 28.724 68.5183 28.6013 68.6873 28.4389C68.8564 28.2765 68.9856 28.076 69.0751 27.8374L70.4821 28.0909C70.3694 28.5052 70.1672 28.8681 69.8755 29.1797C69.5872 29.4879 69.2243 29.7282 68.7868 29.9006C68.3526 30.0696 67.8571 30.1541 67.3002 30.1541ZM75.7905 22.3636V23.5568H71.6193V22.3636H75.7905ZM72.7379 20.5341H74.2244V27.7578C74.2244 28.0462 74.2675 28.2633 74.3537 28.4091C74.4399 28.5516 74.5509 28.6494 74.6868 28.7024C74.826 28.7521 74.9768 28.777 75.1392 28.777C75.2585 28.777 75.3629 28.7687 75.4524 28.7521C75.5419 28.7356 75.6115 28.7223 75.6612 28.7124L75.9297 29.9403C75.8435 29.9735 75.7209 30.0066 75.5618 30.0398C75.4027 30.0762 75.2038 30.0961 74.9652 30.0994C74.5741 30.1061 74.2095 30.0365 73.8714 29.8906C73.5334 29.7448 73.2599 29.5194 73.0511 29.2145C72.8423 28.9096 72.7379 28.5268 72.7379 28.0661V20.5341ZM80.9995 22.3636V23.5568H76.8283V22.3636H80.9995ZM77.9469 20.5341H79.4334V27.7578C79.4334 28.0462 79.4765 28.2633 79.5627 28.4091C79.6489 28.5516 79.7599 28.6494 79.8958 28.7024C80.035 28.7521 80.1858 28.777 80.3482 28.777C80.4675 28.777 80.5719 28.7687 80.6614 28.7521C80.7509 28.7356 80.8205 28.7223 80.8702 28.7124L81.1387 29.9403C81.0525 29.9735 80.9299 30.0066 80.7708 30.0398C80.6117 30.0762 80.4128 30.0961 80.1742 30.0994C79.7831 30.1061 79.4185 30.0365 79.0804 29.8906C78.7424 29.7448 78.4689 29.5194 78.2601 29.2145C78.0513 28.9096 77.9469 28.5268 77.9469 28.0661V20.5341ZM82.6438 30V22.3636H84.1303V30H82.6438ZM83.3945 21.1854C83.136 21.1854 82.9139 21.0992 82.7283 20.9268C82.546 20.7512 82.4549 20.5424 82.4549 20.3004C82.4549 20.0552 82.546 19.8464 82.7283 19.674C82.9139 19.4983 83.136 19.4105 83.3945 19.4105C83.6531 19.4105 83.8735 19.4983 84.0558 19.674C84.2414 19.8464 84.3342 20.0552 84.3342 20.3004C84.3342 20.5424 84.2414 20.7512 84.0558 20.9268C83.8735 21.0992 83.6531 21.1854 83.3945 21.1854ZM87.6167 25.4659V30H86.1301V22.3636H87.557V23.6065H87.6515C87.8271 23.2022 88.1022 22.8774 88.4767 22.6321C88.8546 22.3868 89.3302 22.2642 89.9036 22.2642C90.4239 22.2642 90.8797 22.3736 91.2708 22.5923C91.6619 22.8078 91.9651 23.1293 92.1806 23.5568C92.396 23.9844 92.5037 24.513 92.5037 25.1428V30H91.0172V25.3217C91.0172 24.7682 90.873 24.3357 90.5847 24.0241C90.2963 23.7093 89.9003 23.5518 89.3965 23.5518C89.0518 23.5518 88.7452 23.6264 88.4767 23.7756C88.2116 23.9247 88.0011 24.1435 87.8453 24.4318C87.6929 24.7169 87.6167 25.0616 87.6167 25.4659ZM97.699 33.0227C97.0925 33.0227 96.5705 32.9432 96.133 32.7841C95.6988 32.625 95.3442 32.4145 95.0691 32.1527C94.794 31.8909 94.5885 31.6042 94.4526 31.2926L95.7303 30.7656C95.8198 30.9115 95.9391 31.0656 96.0882 31.228C96.2407 31.3937 96.4462 31.5346 96.7047 31.6506C96.9666 31.7666 97.303 31.8246 97.714 31.8246C98.2774 31.8246 98.7431 31.687 99.111 31.4119C99.4789 31.1402 99.6628 30.706 99.6628 30.1094V28.608H99.5684C99.4789 28.7704 99.3496 28.951 99.1806 29.1499C99.0149 29.3487 98.7862 29.5211 98.4945 29.6669C98.2028 29.8127 97.8233 29.8857 97.356 29.8857C96.7528 29.8857 96.2092 29.7448 95.7253 29.4631C95.2447 29.178 94.8636 28.7588 94.5819 28.2053C94.3034 27.6484 94.1642 26.964 94.1642 26.152C94.1642 25.34 94.3018 24.6439 94.5769 24.0639C94.8553 23.4839 95.2364 23.0398 95.7203 22.7315C96.2042 22.42 96.7528 22.2642 97.3659 22.2642C97.8399 22.2642 98.2227 22.3438 98.5144 22.5028C98.806 22.6586 99.0331 22.8409 99.1955 23.0497C99.3612 23.2585 99.4888 23.4425 99.5783 23.6016H99.6877V22.3636H101.144V30.169C101.144 30.8253 100.992 31.3639 100.687 31.7848C100.382 32.2057 99.9694 32.5173 99.449 32.7195C98.932 32.9216 98.3487 33.0227 97.699 33.0227ZM97.6841 28.6527C98.1117 28.6527 98.473 28.5533 98.7679 28.3544C99.0662 28.1522 99.2916 27.8639 99.4441 27.4893C99.5998 27.1115 99.6777 26.6591 99.6777 26.1321C99.6777 25.6184 99.6015 25.166 99.449 24.7749C99.2966 24.3838 99.0729 24.0788 98.7779 23.8601C98.4829 23.638 98.1183 23.527 97.6841 23.527C97.2367 23.527 96.8638 23.643 96.5655 23.875C96.2672 24.1037 96.0418 24.4152 95.8894 24.8097C95.7402 25.2041 95.6657 25.6449 95.6657 26.1321C95.6657 26.6326 95.7419 27.0717 95.8944 27.4496C96.0468 27.8274 96.2722 28.1224 96.5705 28.3345C96.8721 28.5466 97.2433 28.6527 97.6841 28.6527ZM108.86 24.228L107.513 24.4666C107.457 24.2943 107.367 24.1302 107.244 23.9744C107.125 23.8187 106.963 23.6911 106.757 23.5916C106.552 23.4922 106.295 23.4425 105.987 23.4425C105.566 23.4425 105.214 23.5369 104.933 23.7259C104.651 23.9115 104.51 24.1518 104.51 24.4467C104.51 24.7019 104.605 24.9074 104.794 25.0632C104.982 25.219 105.287 25.3466 105.708 25.446L106.921 25.7244C107.624 25.8868 108.148 26.1371 108.492 26.4751C108.837 26.8132 109.009 27.2524 109.009 27.7926C109.009 28.25 108.877 28.6577 108.612 29.0156C108.35 29.3703 107.984 29.6487 107.513 29.8509C107.046 30.053 106.504 30.1541 105.887 30.1541C105.032 30.1541 104.334 29.9718 103.794 29.6072C103.254 29.2393 102.923 28.7173 102.8 28.0412L104.237 27.8224C104.326 28.197 104.51 28.4804 104.789 28.6726C105.067 28.8615 105.43 28.956 105.877 28.956C106.365 28.956 106.754 28.8549 107.046 28.6527C107.337 28.4472 107.483 28.197 107.483 27.902C107.483 27.6634 107.394 27.4628 107.215 27.3004C107.039 27.138 106.769 27.0154 106.404 26.9325L105.112 26.6491C104.399 26.4867 103.872 26.2282 103.531 25.8736C103.193 25.5189 103.024 25.0698 103.024 24.5263C103.024 24.0755 103.15 23.6811 103.401 23.343C103.653 23.005 104.001 22.7415 104.445 22.5526C104.89 22.3603 105.398 22.2642 105.972 22.2642C106.797 22.2642 107.447 22.4432 107.921 22.8011C108.395 23.1558 108.708 23.6314 108.86 24.228Z" fill="white"/>
</svg>
