<svg width="48" height="48" viewBox="0 0 48 48" fill="none" xmlns="http://www.w3.org/2000/svg">
<g id="Faces">
<mask id="mask0_37_1520" style="mask-type:alpha" maskUnits="userSpaceOnUse" x="0" y="0" width="48" height="48">
<rect id="mask" width="48" height="48" fill="#C4C4C4"/>
</mask>
<g mask="url(#mask0_37_1520)">
<rect id="bg" width="48" height="48" fill="#F5EFFF"/>
<g id="face-01">
<g id="Group">
<path id="Vector" d="M21.1648 0.173459C21.1648 0.173459 15.1086 0.545892 12.6358 6.06864C10.1059 11.7189 11.8003 14.9064 8.52897 18.1442C5.25759 21.382 4.23759 25.8848 7.83777 28.5925C12.1224 31.8169 17.266 28.0825 21.3527 29.7131C30.989 33.5616 42.615 28.8575 39.9945 21.7712C38.743 18.3858 36.4581 19.4527 35.2905 10.1788C34.5758 4.47489 30.4488 -1.05792 21.1648 0.173459Z" fill="#19274B"/>
</g>
<g id="Group_2">
<g id="Group_3">
<g id="Group_4">
<path id="Vector_2" d="M49 47.6201H-1C-1 47.6201 -0.328947 44.4393 0.6273 41.2451C1.58355 38.0509 3.55979 36.7122 6.11985 36.0579C6.84123 35.8733 8.1632 35.4875 9.68984 35.0345C10.5521 34.7762 11.4849 34.4943 12.4076 34.2159C15.6286 33.2361 18.7725 32.2597 18.7725 32.2597L23.9732 31.8437L24.0034 31.8403L24.0336 31.8437L28.7242 32.2195C28.7242 32.2195 31.546 33.065 34.6261 33.9776C37.5183 34.8299 40.6421 35.7425 41.8801 36.0612C44.4402 36.7189 46.4165 38.0543 47.3727 41.2485C48.3289 44.4427 49 47.6201 49 47.6201Z" fill="#FFAC32"/>
</g>
<g id="Group_5">
<path id="Vector_3" d="M10.5957 43.1374C10.4883 44.6506 10.2468 46.1336 9.46833 47.62H-0.996704C-0.996704 47.62 -0.325651 44.4392 0.630596 41.245C1.58684 38.0508 3.56309 36.7121 6.12314 36.0578C6.84452 35.8732 8.1665 35.4874 9.69314 35.0344C10.4179 36.8463 10.7937 40.329 10.5957 43.1374Z" fill="#FF8881"/>
</g>
<g id="Group_6">
<path id="Vector_4" d="M37.4075 43.1374C37.5149 44.6506 37.7565 46.1336 38.5349 47.62H49C49 47.62 48.3289 44.4392 47.3727 41.245C46.4164 38.0508 44.4402 36.7121 41.8801 36.0578C41.1587 35.8732 39.8368 35.4874 38.3101 35.0344C37.5854 36.8463 37.2096 40.329 37.4075 43.1374Z" fill="#FF8881"/>
</g>
<g id="Group_7">
<path id="Vector_5" d="M34.6261 33.9742C33.9617 37.5442 31.6936 44.3822 24.057 44.7345C15.5917 45.1237 13.0518 37.1416 12.4076 34.2124C15.6286 33.2327 18.7725 32.2563 18.7725 32.2563L23.9732 31.8403L24.0033 31.8369L24.0335 31.8403L28.7242 32.2161C28.7242 32.2161 31.5426 33.0649 34.6261 33.9742Z" fill="#FF8881"/>
</g>
<g id="Group_8">
<g id="Group_9">
<path id="Vector_6" d="M24.0302 38.9233C20.6447 38.9233 18.6987 37.2155 17.6586 35.7828C16.5413 34.2428 16.2225 32.7161 16.2124 32.6524C16.1755 32.4645 16.2963 32.2833 16.4809 32.2464C16.6688 32.2095 16.8499 32.3303 16.8868 32.5148C16.8936 32.545 17.1989 33.9844 18.2323 35.4003C19.6046 37.2826 21.5574 38.2355 24.0302 38.2355C26.503 38.2355 28.3484 37.2826 29.5093 35.4003C30.385 33.9878 30.5293 32.5651 30.5293 32.5517C30.5461 32.3638 30.7172 32.2229 30.9051 32.243C31.093 32.2598 31.2339 32.4276 31.2138 32.6188C31.2071 32.6826 31.0527 34.2159 30.0931 35.766C29.204 37.2021 27.4291 38.9233 24.0302 38.9233Z" fill="#F5EFFF"/>
</g>
</g>
</g>
<g id="Group_10">
<path id="Vector_7" d="M24.0305 31.8369V31.8403H24.0034L24.0305 31.8369Z" fill="#5D46C2"/>
</g>
<g id="Group_11">
<path id="Vector_8" d="M24.0037 31.8403H23.9731V31.8369L24.0037 31.8403Z" fill="#5D46C2"/>
</g>
</g>
<g id="Group_12">
<g id="Group_13">
<g id="Group_14">
<path id="Vector_9" d="M28.6403 33.4912C28.6403 33.4912 27.3452 35.9137 23.7282 35.9137C20.232 35.9137 18.7625 33.3704 18.7625 33.3704L18.9772 31.629L19.0141 31.3371L19.3496 28.5925L27.9995 28.8341L28.1437 29.8776L28.1907 30.2198L28.6403 33.4912Z" fill="#FF8881"/>
</g>
<g id="Group_15">
<path id="Vector_10" d="M28.1371 29.8776C26.1776 31.5384 23.0069 32.1692 18.9739 31.629L19.0108 31.3371L19.3463 28.5925L27.9962 28.8341L28.1371 29.8776Z" fill="#19274B"/>
</g>
</g>
<g id="Group_16">
<g id="Group_17">
<path id="Vector_11" d="M16.0985 21.4525C14.1625 24.1535 9.99863 22.3282 10.2805 18.7448C10.5388 15.4936 14.1692 16.0103 14.1692 16.0103L16.0985 21.4525Z" fill="#F55B5D"/>
</g>
<g id="Group_18">
<g id="Group_19">
<path id="Vector_12" d="M14.9844 21.8315C16.3735 22.3986 17.3533 23.7608 17.3533 25.3512C17.3533 27.4449 15.6488 29.1493 13.5551 29.1493C11.4614 29.1493 9.75696 27.4449 9.75696 25.3512C9.75696 23.583 10.9716 22.0932 12.6123 21.6705C12.8572 21.6067 13.1156 21.5665 13.3773 21.5564C13.4175 21.6805 13.4477 21.808 13.4578 21.9422C13.3001 21.9456 13.1424 21.9624 12.9881 21.9892C11.3742 22.2576 10.1395 23.6635 10.1395 25.3512C10.1395 27.2335 11.6695 28.7635 13.5518 28.7635C15.4341 28.7635 16.964 27.2335 16.964 25.3512C16.964 24.0024 16.1756 22.8347 15.0381 22.2811L14.9844 21.8315Z" fill="#F5EFFF"/>
</g>
</g>
<g id="Group_20">
<path id="Vector_13" d="M14.3167 21.523C14.1993 21.523 14.0953 21.4425 14.0651 21.3251C13.6859 19.785 12.0888 18.3489 12.0754 18.3355C11.968 18.2416 11.958 18.0772 12.0553 17.9698C12.1492 17.8624 12.3136 17.8524 12.421 17.9497C12.4914 18.0134 14.1557 19.5065 14.5717 21.2009C14.6053 21.3385 14.5214 21.4794 14.3838 21.5129C14.357 21.5197 14.3368 21.523 14.3167 21.523Z" fill="#D1373F"/>
</g>
<g id="Group_21">
<path id="Vector_14" d="M13.6524 20.0601C13.6256 20.0601 13.5987 20.0567 13.5719 20.0466C12.8639 19.8084 12.1895 19.9527 12.1828 19.956C12.0453 19.9862 11.9077 19.899 11.8741 19.7614C11.8439 19.6239 11.9312 19.4863 12.0687 19.4528C12.1023 19.446 12.8874 19.2749 13.7363 19.5601C13.8705 19.6037 13.9443 19.7514 13.9007 19.8856C13.8604 19.9929 13.7598 20.0601 13.6524 20.0601Z" fill="#D1373F"/>
</g>
</g>
<g id="Group_22">
<g id="Group_23">
<path id="Vector_15" d="M30.422 21.4525C32.358 24.1535 36.5218 22.3282 36.24 18.7448C35.9817 15.4936 32.3513 16.0103 32.3513 16.0103L30.422 21.4525Z" fill="#F55B5D"/>
</g>
<g id="Group_24">
<g id="Group_25">
<path id="Vector_16" d="M32.0057 21.8315C30.6166 22.3986 29.6368 23.7608 29.6368 25.3512C29.6368 27.4449 31.3413 29.1493 33.435 29.1493C35.5287 29.1493 37.2331 27.4449 37.2331 25.3512C37.2331 23.583 36.0185 22.0932 34.3778 21.6705C34.1329 21.6067 33.8745 21.5665 33.6128 21.5564C33.5726 21.6805 33.5424 21.808 33.5323 21.9422C33.69 21.9456 33.8477 21.9624 34.002 21.9892C35.6159 22.2576 36.8506 23.6635 36.8506 25.3512C36.8506 27.2335 35.3206 28.7635 33.4383 28.7635C31.5561 28.7635 30.0261 27.2335 30.0261 25.3512C30.0261 24.0024 30.8145 22.8347 31.952 22.2811L32.0057 21.8315Z" fill="#F5EFFF"/>
</g>
</g>
<g id="Group_26">
<path id="Vector_17" d="M32.2037 21.523C32.1836 21.523 32.1634 21.5197 32.1433 21.5163C32.0057 21.4828 31.9185 21.3418 31.9554 21.2043C32.3714 19.5099 34.0356 18.0134 34.1061 17.953C34.2135 17.8591 34.3745 17.8691 34.4718 17.9732C34.5658 18.0805 34.5557 18.2416 34.4517 18.3389C34.4349 18.3523 32.8378 19.7884 32.462 21.3284C32.4251 21.4425 32.3178 21.523 32.2037 21.523Z" fill="#D1373F"/>
</g>
<g id="Group_27">
<path id="Vector_18" d="M32.868 20.06C32.7606 20.06 32.66 19.9929 32.6231 19.8822C32.5795 19.7479 32.6499 19.6003 32.7875 19.5567C33.6364 19.2715 34.4215 19.4426 34.4551 19.4493C34.5926 19.4795 34.6832 19.6171 34.6497 19.758C34.6195 19.8956 34.4819 19.9828 34.341 19.9526C34.3309 19.9493 33.6565 19.8083 32.9519 20.0432C32.9251 20.0566 32.8949 20.06 32.868 20.06Z" fill="#D1373F"/>
</g>
</g>
<g id="Group_28">
<path id="Vector_19" d="M13.4008 12.0612C13.4008 12.0612 12.4546 17.9195 14.904 23.6502C17.1218 28.8442 20.0744 30.4614 23.2183 30.5117C26.7916 30.5688 34.2738 28.5019 33.0894 11.5478C32.2875 0.093009 14.347 0.495638 13.4008 12.0612Z" fill="#FF8881"/>
</g>
<g id="Group_29">
<g id="Group_30">
<path id="Vector_20" d="M32.868 12.6583C28.0364 12.7825 24.6611 11.4907 22.4902 10.1687C23.376 11.3867 24.8791 12.1584 24.8791 12.1584C21.7655 12.9536 19.749 9.99427 18.8867 8.32335C16.585 11.9135 13.2834 13.6247 13.2834 13.6247C11.2837 1.43166 19.863 0.418377 26.8285 1.07936C33.3377 1.70008 36.589 12.561 32.868 12.6583Z" fill="#19274B"/>
</g>
<g id="Group_31">
<path id="Vector_21" d="M16.028 11.2425C16.028 11.2425 14.3168 14.6347 14.8805 18.1443C15.424 21.5297 15.1791 24.781 13.5082 25.3547C13.5082 25.3547 14.6423 23.7308 13.6088 20.9359C12.5754 18.1409 12.3003 14.4367 12.9881 12.7256C13.6759 11.0144 16.028 11.2425 16.028 11.2425Z" fill="#19274B"/>
</g>
<g id="Group_32">
<path id="Vector_22" d="M30.7441 11.2425C30.7441 11.2425 32.4553 14.6347 31.8916 18.1443C31.3481 21.5297 31.593 24.781 33.2639 25.3547C33.2639 25.3547 32.1299 23.7308 33.1633 20.9359C34.1967 18.1409 34.4718 14.4367 33.784 12.7256C33.0962 11.0144 30.7441 11.2425 30.7441 11.2425Z" fill="#19274B"/>
</g>
</g>
<g id="Group_33">
<path id="Vector_23" d="M16.736 15.0306C16.736 15.0306 18.1049 13.1248 20.4636 12.8799C20.8461 12.8396 21.185 13.1349 21.2085 13.5174V13.5241C21.232 13.9133 20.9233 14.2421 20.5341 14.2488C19.6483 14.2589 18.0948 14.3864 16.736 15.0306Z" fill="#19274B"/>
</g>
<g id="Group_34">
<path id="Vector_24" d="M29.9691 15.0306C29.9691 15.0306 28.6001 13.1248 26.2414 12.8799C25.8589 12.8396 25.52 13.1349 25.4965 13.5174V13.5241C25.473 13.9133 25.7817 14.2421 26.1709 14.2488C27.0567 14.2589 28.6135 14.3864 29.9691 15.0306Z" fill="#19274B"/>
</g>
<g id="Group_35">
<path id="Vector_25" d="M23.6611 27.4717C22.9263 27.4717 22.3425 27.2133 22.3056 27.1966C22.1982 27.1462 22.1479 27.0187 22.1982 26.9114C22.2485 26.804 22.3727 26.7537 22.4834 26.804C22.5035 26.8107 23.8289 27.3912 24.8891 26.6933C24.9898 26.6295 25.1206 26.6564 25.1877 26.7537C25.2515 26.8543 25.2246 26.9852 25.1273 27.0523C24.6375 27.371 24.1208 27.4717 23.6611 27.4717Z" fill="#F55B5D"/>
</g>
<g id="Group_36">
<path id="Vector_26" d="M24.4228 21.9893C24.4161 21.9893 24.4127 21.9893 24.406 21.9893L22.8324 21.8618C22.715 21.8517 22.6244 21.7477 22.6344 21.6302C22.6445 21.5128 22.7485 21.4222 22.8659 21.4323L24.1812 21.5396L23.7719 17.5402C23.7584 17.4228 23.8457 17.3154 23.9631 17.3053C24.0806 17.2919 24.1879 17.3791 24.198 17.4966L24.6342 21.751C24.6409 21.8148 24.6174 21.8785 24.5738 21.9221C24.5369 21.9658 24.4798 21.9893 24.4228 21.9893Z" fill="#F55B5D"/>
</g>
<g id="Group_37">
<path id="Vector_27" d="M20.2858 23.7039C22.2217 24.0058 24.1913 24.1367 26.8285 23.6133C26.8285 23.6133 26.6004 26.4317 23.4699 26.4418C20.8058 26.4518 20.2858 23.7039 20.2858 23.7039Z" fill="#F5EFFF"/>
</g>
<g id="Group_38">
<path id="Vector_28" d="M20.1314 17.5167C20.1314 18.2616 19.7926 18.8689 19.3731 18.8689C18.9537 18.8689 18.6149 18.2649 18.6149 17.5167C18.6149 16.7719 18.9537 16.1646 19.3731 16.1646C19.7926 16.1646 20.1314 16.7719 20.1314 17.5167Z" fill="#19274B"/>
</g>
<g id="Group_39">
<path id="Vector_29" d="M28.1874 17.5167C28.1874 18.2616 27.8485 18.8689 27.4291 18.8689C27.0097 18.8689 26.6708 18.2649 26.6708 17.5167C26.6708 16.7719 27.0097 16.1646 27.4291 16.1646C27.8451 16.1646 28.1874 16.7719 28.1874 17.5167Z" fill="#19274B"/>
</g>
<g id="Group_40">
<g id="Group_41">
<path id="Vector_30" d="M17.3633 20.2882C17.3633 20.4157 17.2593 20.5197 17.1318 20.5197C17.0043 20.5197 16.9003 20.4157 16.9003 20.2882C16.9003 20.1607 17.0043 20.0567 17.1318 20.0567C17.2593 20.0534 17.3633 20.1574 17.3633 20.2882Z" fill="#F55B5D"/>
</g>
<g id="Group_42">
<path id="Vector_31" d="M18.4975 20.8485C18.4975 20.976 18.3934 21.08 18.2659 21.08C18.1384 21.08 18.0344 20.976 18.0344 20.8485C18.0344 20.721 18.1384 20.6169 18.2659 20.6169C18.3934 20.6169 18.4975 20.721 18.4975 20.8485Z" fill="#F55B5D"/>
</g>
<g id="Group_43">
<path id="Vector_32" d="M17.3633 21.6539C17.3633 21.7814 17.2593 21.8854 17.1318 21.8854C17.0043 21.8854 16.9003 21.7814 16.9003 21.6539C16.9003 21.5264 17.0043 21.4224 17.1318 21.4224C17.2593 21.4224 17.3633 21.5264 17.3633 21.6539Z" fill="#F55B5D"/>
</g>
<g id="Group_44">
<path id="Vector_33" d="M18.9135 22.1203C19.0414 22.1203 19.145 22.0166 19.145 21.8887C19.145 21.7609 19.0414 21.6572 18.9135 21.6572C18.7857 21.6572 18.682 21.7609 18.682 21.8887C18.682 22.0166 18.7857 22.1203 18.9135 22.1203Z" fill="#F55B5D"/>
</g>
<g id="Group_45">
<path id="Vector_34" d="M20.1011 21.8854C20.229 21.8854 20.3327 21.7817 20.3327 21.6539C20.3327 21.526 20.229 21.4224 20.1011 21.4224C19.9733 21.4224 19.8696 21.526 19.8696 21.6539C19.8696 21.7817 19.9733 21.8854 20.1011 21.8854Z" fill="#F55B5D"/>
</g>
<g id="Group_46">
<path id="Vector_35" d="M19.7925 20.5198C19.7925 20.6473 19.6885 20.7514 19.561 20.7514C19.4335 20.7514 19.3295 20.6473 19.3295 20.5198C19.3295 20.3923 19.4335 20.2883 19.561 20.2883C19.6885 20.2883 19.7925 20.3923 19.7925 20.5198Z" fill="#F55B5D"/>
</g>
</g>
<g id="Group_47">
<g id="Group_48">
<path id="Vector_36" d="M30.1268 20.5197C30.2546 20.5197 30.3583 20.416 30.3583 20.2882C30.3583 20.1603 30.2546 20.0566 30.1268 20.0566C29.9989 20.0566 29.8953 20.1603 29.8953 20.2882C29.8953 20.416 29.9989 20.5197 30.1268 20.5197Z" fill="#F55B5D"/>
</g>
<g id="Group_49">
<path id="Vector_37" d="M28.9926 21.08C29.1205 21.08 29.2241 20.9763 29.2241 20.8485C29.2241 20.7206 29.1205 20.6169 28.9926 20.6169C28.8648 20.6169 28.7611 20.7206 28.7611 20.8485C28.7611 20.9763 28.8648 21.08 28.9926 21.08Z" fill="#F55B5D"/>
</g>
<g id="Group_50">
<path id="Vector_38" d="M30.1268 21.8851C30.2546 21.8851 30.3583 21.7815 30.3583 21.6536C30.3583 21.5258 30.2546 21.4221 30.1268 21.4221C29.9989 21.4221 29.8953 21.5258 29.8953 21.6536C29.8953 21.7815 29.9989 21.8851 30.1268 21.8851Z" fill="#F55B5D"/>
</g>
<g id="Group_51">
<path id="Vector_39" d="M28.3417 22.1203C28.4696 22.1203 28.5733 22.0166 28.5733 21.8887C28.5733 21.7609 28.4696 21.6572 28.3417 21.6572C28.2139 21.6572 28.1102 21.7609 28.1102 21.8887C28.1102 22.0166 28.2139 22.1203 28.3417 22.1203Z" fill="#F55B5D"/>
</g>
<g id="Group_52">
<path id="Vector_40" d="M26.9225 21.6536C26.9225 21.7811 27.0265 21.8851 27.154 21.8851C27.2815 21.8851 27.3855 21.7811 27.3855 21.6536C27.3855 21.5261 27.2815 21.4221 27.154 21.4221C27.0265 21.4221 26.9225 21.5261 26.9225 21.6536Z" fill="#F55B5D"/>
</g>
<g id="Group_53">
<path id="Vector_41" d="M27.6942 20.7511C27.822 20.7511 27.9257 20.6475 27.9257 20.5196C27.9257 20.3917 27.822 20.2881 27.6942 20.2881C27.5663 20.2881 27.4626 20.3917 27.4626 20.5196C27.4626 20.6475 27.5663 20.7511 27.6942 20.7511Z" fill="#F55B5D"/>
</g>
</g>
</g>
</g>
</g>
</g>
</svg>
