<svg width="40" height="40" viewBox="0 0 40 40" fill="none" xmlns="http://www.w3.org/2000/svg">
<g id="People">
<mask id="mask0_37_1023" style="mask-type:alpha" maskUnits="userSpaceOnUse" x="0" y="0" width="40" height="40">
<rect id="mask" width="40" height="40" fill="#C4C4C4"/>
</mask>
<g mask="url(#mask0_37_1023)">
<rect id="bg" width="40" height="40" fill="#F5EFFF"/>
<g id="face">
<g id="Group">
<g id="Group_2">
<g id="Group_3">
<path id="Vector" d="M36.4443 40.0006H3.33337C3.33337 40.0006 3.77775 37.8942 4.411 35.7789C5.04424 33.6637 6.35295 32.7771 8.04827 32.3439C8.52598 32.2217 9.40141 31.9661 10.4124 31.6662C10.8012 31.5484 11.2123 31.4262 11.6278 31.2996C11.8211 31.2418 12.0166 31.1818 12.2121 31.1218C14.3452 30.473 16.4271 29.8264 16.4271 29.8264L19.8711 29.5509L19.891 29.5487L19.911 29.5509L23.0173 29.7998C23.0173 29.7998 24.8859 30.3597 26.9256 30.9641C27.3167 31.0796 27.7166 31.1974 28.1077 31.3129C29.6341 31.7595 31.0761 32.1772 31.7294 32.3439C33.4247 32.7794 34.7334 33.6637 35.3667 35.7789C35.9999 37.8942 36.4443 40.0006 36.4443 40.0006Z" fill="#19274B"/>
</g>
</g>
<g id="Group_4">
<g id="Group_5">
<path id="Vector_2" d="M28.1076 31.3101C27.9077 32.1699 27.5633 33.3031 26.9811 34.423C25.8435 36.6182 23.8016 38.7757 20.1665 38.7757C16.3159 38.7757 14.114 36.5404 12.8853 34.3963C12.2032 33.2031 11.821 32.0389 11.6255 31.299C11.8188 31.2412 12.0143 31.1812 12.2099 31.1212C14.3429 30.4724 16.4248 29.8258 16.4248 29.8258L19.8688 29.5503L19.8888 29.5481L19.9088 29.5503L23.015 29.7992C23.015 29.7992 24.8836 30.3591 26.9233 30.9635C27.3166 31.0768 27.7143 31.1945 28.1076 31.3101Z" fill="#FF8881"/>
</g>
<g id="Group_6">
<g id="Group_7">
<g id="Group_8">
<path id="Vector_3" d="M15.5493 30.4391C15.4582 30.4391 15.3716 30.4035 15.3071 30.3391C15.2916 30.3235 15.276 30.3058 15.2649 30.288C15.2516 30.2702 15.2427 30.2502 15.2338 30.228C15.2249 30.208 15.2183 30.1858 15.2138 30.1636C15.2094 30.1413 15.2072 30.1191 15.2072 30.0969C15.2072 30.0747 15.2094 30.0525 15.2138 30.0303C15.2183 30.008 15.2249 29.9858 15.2338 29.9658C15.2427 29.9458 15.2516 29.9258 15.2649 29.908C15.2783 29.8903 15.2916 29.8725 15.3071 29.8569C15.3716 29.7925 15.4582 29.757 15.5493 29.757C15.6404 29.757 15.7271 29.7925 15.7915 29.8569C15.8071 29.8725 15.8226 29.8903 15.8337 29.908C15.8448 29.9258 15.856 29.9458 15.8648 29.9658C15.8737 29.9858 15.8804 30.008 15.8848 30.0303C15.8893 30.0525 15.8915 30.0747 15.8915 30.0969C15.8915 30.1191 15.8893 30.1413 15.8848 30.1636C15.8804 30.1858 15.8737 30.2058 15.8648 30.228C15.856 30.248 15.8448 30.268 15.8337 30.288C15.8204 30.3058 15.8071 30.3235 15.7915 30.3391C15.776 30.3547 15.7582 30.3702 15.7404 30.3813C15.7226 30.3924 15.7026 30.4035 15.6804 30.4124C15.6604 30.4213 15.6382 30.428 15.616 30.4324C15.5938 30.4369 15.5715 30.4391 15.5493 30.4391Z" fill="#F5EFFF"/>
</g>
</g>
<g id="Group_9">
<g id="Group_10">
<path id="Vector_4" d="M19.9109 33.9231C19.7221 33.9231 19.5688 33.7675 19.571 33.5809C19.571 33.392 19.7243 33.2387 19.9132 33.2409C20.102 33.2409 20.2553 33.3943 20.2553 33.5831C20.2531 33.7698 20.0998 33.9231 19.9109 33.9231ZM20.4464 33.572C20.4198 33.3854 20.5509 33.2121 20.7375 33.1854C20.9241 33.1587 21.0974 33.2898 21.1219 33.4765C21.1486 33.6631 21.0175 33.8364 20.8308 33.8631C20.8153 33.8653 20.7997 33.8653 20.7842 33.8653C20.6153 33.8653 20.4709 33.7431 20.4464 33.572ZM18.9889 33.8564C18.8022 33.8297 18.6733 33.6542 18.7 33.4676C18.7267 33.2809 18.9022 33.1521 19.0888 33.1787C19.2755 33.2054 19.4044 33.3787 19.3777 33.5653C19.3532 33.7364 19.2066 33.8586 19.04 33.8586C19.0222 33.8586 19.0044 33.8586 18.9889 33.8564ZM21.313 33.4365C21.253 33.2565 21.3507 33.0632 21.5307 33.0054C21.7107 32.9454 21.904 33.0432 21.9618 33.2232C22.0218 33.4031 21.924 33.5964 21.744 33.6542C21.7085 33.6653 21.6729 33.672 21.6374 33.672C21.4952 33.672 21.3596 33.5809 21.313 33.4365ZM18.0756 33.6409C17.8957 33.5809 17.8001 33.3854 17.8623 33.2076C17.9223 33.0276 18.1156 32.9321 18.2956 32.9943C18.4756 33.0543 18.5711 33.2498 18.5089 33.4276C18.46 33.5698 18.3267 33.6609 18.1845 33.6609C18.149 33.6587 18.1134 33.652 18.0756 33.6409ZM22.1395 33.1432C22.0418 32.981 22.0951 32.7721 22.2573 32.6744C22.4195 32.5766 22.6283 32.6299 22.7261 32.7921C22.8239 32.9543 22.7705 33.1632 22.6083 33.2609C22.5528 33.2943 22.4928 33.3098 22.4328 33.3098C22.3195 33.3098 22.204 33.2498 22.1395 33.1432ZM17.2158 33.2432C17.0536 33.1454 17.0025 32.9365 17.1002 32.7743C17.198 32.6121 17.4068 32.561 17.569 32.6588C17.7312 32.7566 17.7824 32.9676 17.6846 33.1276C17.6202 33.2343 17.5068 33.292 17.3913 33.292C17.3313 33.292 17.2691 33.2765 17.2158 33.2432ZM22.8816 32.6721C22.7483 32.5388 22.7505 32.3211 22.8839 32.1878C23.0172 32.0544 23.2349 32.0544 23.3682 32.19C23.5016 32.3233 23.5015 32.541 23.366 32.6744C23.2994 32.741 23.2127 32.7743 23.126 32.7743C23.0372 32.7743 22.9483 32.741 22.8816 32.6721ZM16.4603 32.6566C16.3248 32.5233 16.3248 32.3077 16.4559 32.1722C16.5892 32.0367 16.8047 32.0367 16.9403 32.17C17.0758 32.3033 17.0758 32.5188 16.9425 32.6521C16.8758 32.721 16.7869 32.7543 16.6981 32.7543C16.6136 32.7543 16.527 32.721 16.4603 32.6566ZM23.4882 32.0367C23.326 31.9367 23.2771 31.7256 23.3771 31.5656C23.4771 31.4056 23.6882 31.3545 23.8482 31.4545C24.0081 31.5545 24.0593 31.7634 23.9593 31.9256C23.8948 32.03 23.7815 32.0878 23.6682 32.0878C23.606 32.0878 23.5438 32.0722 23.4882 32.0367ZM15.8648 31.9122C15.7649 31.7523 15.8115 31.5412 15.9715 31.4412C16.1315 31.3412 16.3426 31.3879 16.4425 31.5478C16.5425 31.7078 16.4959 31.9189 16.3359 32.0189C16.2781 32.0544 16.2159 32.0722 16.1537 32.0722C16.0404 32.0722 15.9293 32.0167 15.8648 31.9122ZM23.9304 31.2768C23.7526 31.2146 23.6593 31.019 23.7215 30.8413C23.7837 30.6635 23.9793 30.5702 24.157 30.6324C24.3348 30.6946 24.4281 30.8902 24.3659 31.0679C24.317 31.2079 24.1837 31.2968 24.0437 31.2968C24.0059 31.2968 23.9682 31.2901 23.9304 31.2768ZM15.4449 31.0635C15.3805 30.8857 15.4693 30.6902 15.6471 30.6235C15.8249 30.5569 16.0204 30.648 16.087 30.8257C16.1515 31.0013 16.0626 31.199 15.8848 31.2657C15.8448 31.2812 15.8049 31.2879 15.7649 31.2879C15.6271 31.2857 15.496 31.2012 15.4449 31.0635Z" fill="#F5EFFF"/>
</g>
</g>
<g id="Group_11">
<g id="Group_12">
<path id="Vector_5" d="M24.2459 30.4391C24.2236 30.4391 24.2014 30.4369 24.1792 30.4324C24.157 30.428 24.137 30.4213 24.1148 30.4124C24.0948 30.4035 24.0748 30.3924 24.0548 30.3813C24.037 30.368 24.0192 30.3547 24.0037 30.3391C23.9881 30.3235 23.9726 30.3058 23.9615 30.288C23.9481 30.2702 23.937 30.2502 23.9303 30.228C23.9215 30.208 23.9148 30.1858 23.9104 30.1636C23.9059 30.1413 23.9037 30.1191 23.9037 30.0969C23.9037 30.0747 23.9059 30.0525 23.9104 30.0303C23.9148 30.008 23.9215 29.988 23.9303 29.9658C23.9392 29.9458 23.9503 29.9258 23.9615 29.908C23.9726 29.8903 23.9881 29.8725 24.0037 29.8569C24.0192 29.8414 24.037 29.8258 24.0548 29.8147C24.0726 29.8014 24.0926 29.7925 24.1148 29.7836C24.1348 29.7747 24.157 29.7681 24.1792 29.7636C24.2236 29.7547 24.2681 29.7547 24.3125 29.7636C24.3347 29.7681 24.3547 29.7747 24.377 29.7836C24.397 29.7925 24.417 29.8014 24.4347 29.8147C24.4525 29.8281 24.4703 29.8414 24.4881 29.8569C24.5036 29.8725 24.5169 29.8903 24.5303 29.908C24.5436 29.9258 24.5525 29.9458 24.5614 29.9658C24.5703 29.9858 24.5769 30.008 24.5814 30.0303C24.5858 30.0525 24.588 30.0747 24.588 30.0969C24.588 30.1191 24.5858 30.1413 24.5814 30.1636C24.5769 30.1858 24.5703 30.2058 24.5614 30.228C24.5525 30.248 24.5436 30.268 24.5303 30.288C24.5169 30.3058 24.5036 30.3235 24.4881 30.3391C24.4725 30.3547 24.4547 30.3702 24.4347 30.3813C24.417 30.3924 24.397 30.4035 24.377 30.4124C24.357 30.4213 24.3347 30.428 24.3125 30.4324C24.2903 30.4369 24.2681 30.4391 24.2459 30.4391Z" fill="#F5EFFF"/>
</g>
</g>
</g>
<g id="Group_13">
<path id="Vector_6" d="M26.9811 34.4229C25.8434 36.6182 23.8015 38.7756 20.1665 38.7756C16.3159 38.7756 14.114 36.5404 12.8853 34.3962C16.0359 35.165 21.393 35.9516 26.9811 34.4229Z" fill="#F5EFFF"/>
</g>
</g>
<g id="Group_14">
<path id="Vector_7" d="M19.9096 29.5459V29.5505L19.8889 29.5482L19.9096 29.5459Z" fill="#5D46C2"/>
</g>
<g id="Group_15">
<path id="Vector_8" d="M19.8896 29.5482L19.8689 29.5505V29.5459L19.8896 29.5482Z" fill="#5D46C2"/>
</g>
</g>
<g id="Group_16">
<g id="Group_17">
<g id="Group_18">
<g id="Group_19">
<path id="Vector_9" d="M24.1239 9.19762C24.0772 9.37981 24.015 9.56645 23.9372 9.75309C23.9039 9.83308 23.8683 9.9153 23.8306 9.99751C23.8128 10.0353 23.795 10.073 23.775 10.113C23.0818 11.484 21.6575 12.3283 20.1222 12.3283H18.8002C17.7314 12.3283 16.6982 11.9172 15.9339 11.1685C15.5939 10.8352 15.2584 10.4419 14.9962 9.99084C14.9518 9.9153 14.9096 9.83531 14.8696 9.75532C14.8452 9.70421 14.8207 9.65311 14.7985 9.59978C14.303 8.41995 14.5585 6.6202 15.8761 5.42926C19.1512 2.47189 25.1837 5.11152 24.1239 9.19762Z" fill="#E9356E"/>
</g>
</g>
<g id="Group_20">
<path id="Vector_10" d="M24.1238 9.19757C24.0772 9.37977 24.0149 9.56641 23.9372 9.75305C23.9038 9.83304 23.8683 9.91525 23.8305 9.99746C23.8128 10.0352 23.795 10.073 23.775 10.113C23.0817 11.4839 21.6575 12.3282 20.1222 12.3282H18.8001C17.7314 12.3282 16.6982 11.9172 15.9339 11.1684C15.5939 10.8351 15.2584 10.4418 14.9962 9.9908C14.9518 9.91525 14.9096 9.83526 14.8696 9.75527C14.8451 9.70417 14.8207 9.65306 14.7985 9.59974C15.7539 8.96649 17.4292 8.1355 19.6467 8.1355C21.4131 8.1355 22.984 8.66431 24.1238 9.19757Z" fill="#FFAC32"/>
</g>
</g>
<g id="Group_21">
<path id="Vector_11" d="M19.5933 25.5642C24.2282 25.5642 27.9855 21.8069 27.9855 17.1721C27.9855 12.5372 24.2282 8.77991 19.5933 8.77991C14.9585 8.77991 11.2012 12.5372 11.2012 17.1721C11.2012 21.8069 14.9585 25.5642 19.5933 25.5642Z" fill="#E9356E"/>
</g>
<g id="Group_22">
<g id="Group_23">
<path id="Vector_12" d="M22.9595 30.644C22.9595 30.644 22.1019 32.2482 19.7066 32.2482C17.3914 32.2482 16.4182 30.564 16.4182 30.564L16.5604 29.4109L16.5849 29.2176L16.807 27.4L22.5351 27.56L22.6307 28.251L22.6618 28.4777L22.9595 30.644Z" fill="#FF8881"/>
</g>
<g id="Group_24">
<path id="Vector_13" d="M22.6285 28.2483C21.3309 29.3482 19.2312 29.7659 16.5604 29.4082L16.5849 29.2149L16.8071 27.3973L22.5351 27.5573L22.6285 28.2483Z" fill="#19274B"/>
</g>
</g>
<g id="Group_25">
<g id="Group_26">
<path id="Vector_14" d="M14.654 22.6713C13.372 24.46 10.6146 23.2513 10.8013 20.8783C10.9723 18.7252 13.3765 19.0674 13.3765 19.0674L14.654 22.6713Z" fill="#F55B5D"/>
</g>
<g id="Group_27">
<path id="Vector_15" d="M12.9631 22.6491C12.9631 22.8891 12.7698 23.0824 12.5298 23.0824C12.2899 23.0824 12.0966 22.8891 12.0966 22.6491C12.0966 22.4091 12.2899 22.2158 12.5298 22.2158C12.7698 22.2158 12.9631 22.4114 12.9631 22.6491Z" fill="#F5EFFF"/>
</g>
<g id="Group_28">
<path id="Vector_16" d="M13.4765 22.7158C13.3987 22.7158 13.3298 22.6625 13.3098 22.5847C13.0587 21.5649 12.0011 20.6139 11.9922 20.605C11.9211 20.5428 11.9144 20.4339 11.9789 20.3628C12.0411 20.2917 12.15 20.2851 12.2211 20.3495C12.2677 20.3917 13.3698 21.3805 13.6453 22.5025C13.6675 22.5936 13.612 22.6869 13.5209 22.7092C13.5031 22.7136 13.4898 22.7158 13.4765 22.7158Z" fill="#D1373F"/>
</g>
<g id="Group_29">
<path id="Vector_17" d="M13.0342 21.7492C13.0165 21.7492 12.9987 21.747 12.9809 21.7404C12.5121 21.5826 12.0655 21.6781 12.061 21.6804C11.9699 21.7004 11.8766 21.6426 11.8566 21.5515C11.8366 21.4604 11.8944 21.3693 11.9855 21.3471C12.0077 21.3426 12.5276 21.2293 13.0898 21.4182C13.1787 21.4471 13.2275 21.5448 13.1987 21.6337C13.172 21.7026 13.1053 21.7492 13.0342 21.7492Z" fill="#D1373F"/>
</g>
</g>
<g id="Group_30">
<g id="Group_31">
<path id="Vector_18" d="M24.1416 22.6713C25.4236 24.46 28.181 23.2513 27.9944 20.8783C27.8233 18.7252 25.4192 19.0674 25.4192 19.0674L24.1416 22.6713Z" fill="#F55B5D"/>
</g>
<g id="Group_32">
<path id="Vector_19" d="M26.7013 22.6491C26.7013 22.8891 26.508 23.0824 26.268 23.0824C26.028 23.0824 25.8347 22.8891 25.8347 22.6491C25.8347 22.4091 26.028 22.2158 26.268 22.2158C26.5057 22.2158 26.7013 22.4114 26.7013 22.6491Z" fill="#F5EFFF"/>
</g>
<g id="Group_33">
<path id="Vector_20" d="M25.3192 22.7157C25.3059 22.7157 25.2925 22.7135 25.2792 22.7113C25.1881 22.6891 25.1304 22.5957 25.1548 22.5046C25.4303 21.3826 26.5324 20.3916 26.579 20.3516C26.6501 20.2894 26.7568 20.2961 26.8212 20.3649C26.8834 20.436 26.8768 20.5427 26.8079 20.6071C26.7968 20.616 25.7392 21.567 25.4903 22.5869C25.4659 22.6646 25.397 22.7157 25.3192 22.7157Z" fill="#D1373F"/>
</g>
<g id="Group_34">
<path id="Vector_21" d="M25.7614 21.7493C25.6903 21.7493 25.6237 21.7048 25.5992 21.6315C25.5681 21.5426 25.617 21.4449 25.7081 21.416C26.2702 21.2271 26.7902 21.3404 26.8124 21.3449C26.9035 21.3649 26.9635 21.456 26.9412 21.5493C26.9212 21.6404 26.8301 21.6982 26.7368 21.6782C26.7324 21.6759 26.2836 21.5826 25.817 21.7382C25.797 21.7448 25.7792 21.7493 25.7614 21.7493Z" fill="#D1373F"/>
</g>
</g>
<g id="Group_35">
<path id="Vector_22" d="M12.8676 16.4499C12.8676 16.4499 12.241 20.3293 13.863 24.1244C15.3317 27.5639 17.2869 28.6348 19.3689 28.6682C21.7352 28.7059 26.6901 27.3372 25.9057 16.1099C25.3769 8.52433 13.4941 8.79318 12.8676 16.4499Z" fill="#FF8881"/>
</g>
<g id="Group_36">
<path id="Vector_23" d="M24.1416 13.9392C24.1416 13.9392 25.2482 16.9343 25.837 17.7031L26.4835 15.7167C26.4835 15.7167 26.0147 9.98193 19.3712 9.98193C12.501 9.98193 12.7366 15.7167 12.7366 15.7167L13.3254 18.4163C13.3254 18.4163 15.054 15.8389 15.1851 14.1302C15.1851 14.1302 17.4826 16.6766 19.6089 16.3722C19.6089 16.3722 18.829 15.5367 18.6202 14.8901C18.6202 14.8901 22.3352 16.8499 24.8215 16.1433C24.8215 16.1433 24.1905 15.2323 24.1416 13.9392Z" fill="#E9356E"/>
</g>
<g id="Group_37">
<path id="Vector_24" d="M12.7366 15.7145C12.7366 15.7145 11.9322 17.5542 12.3877 19.2051C12.8432 20.856 14.7474 22.7802 13.3987 24.7177C12.0522 26.6552 13.5187 29.4481 15.5495 28.9348C15.5495 28.9348 13.4254 28.7193 13.5342 26.5107C13.6409 24.3022 15.8983 23.8644 14.1897 20.7582C12.481 17.652 14.0186 15.2301 14.0186 15.2301L12.7366 15.7145Z" fill="#E9356E"/>
</g>
<g id="Group_38">
<path id="Vector_25" d="M26.4835 15.7145C26.4835 15.7145 27.2878 17.5542 26.8323 19.2051C26.3768 20.856 24.4726 22.7802 25.8213 24.7177C27.1678 26.6552 25.7014 29.4481 23.6705 28.9348C23.6705 28.9348 25.7947 28.7193 25.6858 26.5107C25.5791 24.3022 23.3217 23.8644 25.0303 20.7582C26.739 17.652 25.2014 15.2301 25.2014 15.2301L26.4835 15.7145Z" fill="#E9356E"/>
</g>
<g id="Group_39">
<path id="Vector_26" d="M15.0784 18.4163C15.0784 18.4163 15.9849 17.1543 17.5469 16.9921C17.8002 16.9654 18.0246 17.1609 18.0402 17.4142V17.4187C18.0557 17.6764 17.8513 17.8942 17.5936 17.8986C17.007 17.9053 15.976 17.9897 15.0784 18.4163Z" fill="#E9356E"/>
</g>
<g id="Group_40">
<path id="Vector_27" d="M23.8417 18.4163C23.8417 18.4163 22.9351 17.1543 21.3731 16.9921C21.1198 16.9654 20.8954 17.1609 20.8799 17.4142V17.4187C20.8643 17.6764 21.0687 17.8942 21.3265 17.8986C21.913 17.9053 22.9418 17.9897 23.8417 18.4163Z" fill="#E9356E"/>
</g>
<g id="Group_41">
<path id="Vector_28" d="M19.6645 26.6552C19.1779 26.6552 18.7913 26.4841 18.7668 26.473C18.6957 26.4397 18.6624 26.3552 18.6957 26.2841C18.7291 26.213 18.8135 26.1797 18.8846 26.213C18.8935 26.2175 19.7734 26.6019 20.4777 26.1397C20.5444 26.0953 20.631 26.1153 20.6755 26.1797C20.7177 26.2464 20.6999 26.333 20.6355 26.3775C20.3111 26.5886 19.9667 26.6552 19.6645 26.6552Z" fill="#F55B5D"/>
</g>
<g id="Group_42">
<path id="Vector_29" d="M20.1688 23.0246C20.1643 23.0246 20.1621 23.0246 20.1577 23.0246L19.1156 22.9401C19.0378 22.9335 18.9778 22.8646 18.9845 22.7868C18.9912 22.7091 19.0601 22.6513 19.1378 22.6557L20.0088 22.7268L19.7377 20.0783C19.7289 20.0005 19.7866 19.9294 19.8644 19.9228C19.9422 19.9139 20.0133 19.9717 20.0199 20.0494L20.3088 22.869C20.3132 22.9113 20.2977 22.9535 20.2688 22.9824C20.2421 23.009 20.2066 23.0246 20.1688 23.0246Z" fill="#F55B5D"/>
</g>
<g id="Group_43">
<path id="Vector_30" d="M17.4292 24.16C18.7112 24.3599 20.0155 24.4466 21.7619 24.1C21.7619 24.1 21.6108 25.9664 19.5378 25.973C17.7736 25.9797 17.4292 24.16 17.4292 24.16Z" fill="#F5EFFF"/>
</g>
<g id="Group_44">
<path id="Vector_31" d="M17.3247 20.0628C17.3247 20.5561 17.1003 20.9582 16.8226 20.9582C16.5449 20.9582 16.3204 20.5583 16.3204 20.0628C16.3204 19.5695 16.5449 19.1674 16.8226 19.1674C17.1003 19.1696 17.3247 19.5695 17.3247 20.0628Z" fill="#19274B"/>
</g>
<g id="Group_45">
<path id="Vector_32" d="M22.6596 20.0628C22.6596 20.5561 22.4352 20.9582 22.1574 20.9582C21.8797 20.9582 21.6553 20.5583 21.6553 20.0628C21.6553 19.5695 21.8797 19.1674 22.1574 19.1674C22.4352 19.1696 22.6596 19.5695 22.6596 20.0628Z" fill="#19274B"/>
</g>
<g id="Group_46">
<g id="Group_47">
<path id="Vector_33" d="M15.4917 21.8981C15.4917 21.9825 15.4228 22.0514 15.3384 22.0514C15.2539 22.0514 15.1851 21.9825 15.1851 21.8981C15.1851 21.8136 15.2539 21.7448 15.3384 21.7448C15.4228 21.7448 15.4917 21.8136 15.4917 21.8981Z" fill="#F55B5D"/>
</g>
<g id="Group_48">
<path id="Vector_34" d="M16.2427 22.2692C16.2427 22.3536 16.1738 22.4225 16.0893 22.4225C16.0049 22.4225 15.936 22.3536 15.936 22.2692C15.936 22.1847 16.0049 22.1158 16.0893 22.1158C16.1738 22.1158 16.2427 22.1847 16.2427 22.2692Z" fill="#F55B5D"/>
</g>
<g id="Group_49">
<path id="Vector_35" d="M15.4917 22.8046C15.4917 22.889 15.4228 22.9579 15.3384 22.9579C15.2539 22.9579 15.1851 22.889 15.1851 22.8046C15.1851 22.7202 15.2539 22.6513 15.3384 22.6513C15.4228 22.6491 15.4917 22.7202 15.4917 22.8046Z" fill="#F55B5D"/>
</g>
<g id="Group_50">
<path id="Vector_36" d="M16.6737 22.9579C16.6737 23.0423 16.6048 23.1112 16.5204 23.1112C16.4359 23.1112 16.3671 23.0423 16.3671 22.9579C16.3671 22.8734 16.4359 22.8046 16.5204 22.8046C16.6048 22.8046 16.6737 22.8734 16.6737 22.9579Z" fill="#F55B5D"/>
</g>
<g id="Group_51">
<path id="Vector_37" d="M17.4603 22.8046C17.4603 22.889 17.3914 22.9579 17.307 22.9579C17.2226 22.9579 17.1537 22.889 17.1537 22.8046C17.1537 22.7202 17.2226 22.6513 17.307 22.6513C17.3914 22.6491 17.4603 22.7202 17.4603 22.8046Z" fill="#F55B5D"/>
</g>
<g id="Group_52">
<path id="Vector_38" d="M17.1025 22.0514C17.1025 22.1358 17.0336 22.2047 16.9492 22.2047C16.8648 22.2047 16.7959 22.1358 16.7959 22.0514C16.7959 21.967 16.8648 21.8981 16.9492 21.8981C17.0336 21.8981 17.1025 21.967 17.1025 22.0514Z" fill="#F55B5D"/>
</g>
</g>
<g id="Group_53">
<g id="Group_54">
<path id="Vector_39" d="M23.7905 21.8981C23.7905 21.9825 23.8594 22.0514 23.9438 22.0514C24.0283 22.0514 24.0972 21.9825 24.0972 21.8981C24.0972 21.8136 24.0283 21.7448 23.9438 21.7448C23.8594 21.7448 23.7905 21.8136 23.7905 21.8981Z" fill="#F55B5D"/>
</g>
<g id="Group_55">
<path id="Vector_40" d="M23.1929 22.4225C23.2775 22.4225 23.3462 22.3538 23.3462 22.2692C23.3462 22.1845 23.2775 22.1158 23.1929 22.1158C23.1082 22.1158 23.0396 22.1845 23.0396 22.2692C23.0396 22.3538 23.1082 22.4225 23.1929 22.4225Z" fill="#F55B5D"/>
</g>
<g id="Group_56">
<path id="Vector_41" d="M23.7905 22.8046C23.7905 22.889 23.8594 22.9579 23.9438 22.9579C24.0283 22.9579 24.0972 22.889 24.0972 22.8046C24.0972 22.7202 24.0283 22.6513 23.9438 22.6513C23.8594 22.6491 23.7905 22.7202 23.7905 22.8046Z" fill="#F55B5D"/>
</g>
<g id="Group_57">
<path id="Vector_42" d="M22.6107 22.9579C22.6107 23.0423 22.6796 23.1112 22.764 23.1112C22.8485 23.1112 22.9173 23.0423 22.9173 22.9579C22.9173 22.8734 22.8485 22.8046 22.764 22.8046C22.6796 22.8046 22.6107 22.8734 22.6107 22.9579Z" fill="#F55B5D"/>
</g>
<g id="Group_58">
<path id="Vector_43" d="M21.8219 22.8046C21.8219 22.889 21.8908 22.9579 21.9752 22.9579C22.0596 22.9579 22.1285 22.889 22.1285 22.8046C22.1285 22.7202 22.0596 22.6513 21.9752 22.6513C21.8908 22.6491 21.8219 22.7202 21.8219 22.8046Z" fill="#F55B5D"/>
</g>
<g id="Group_59">
<path id="Vector_44" d="M22.1797 22.0514C22.1797 22.1358 22.2486 22.2047 22.333 22.2047C22.4174 22.2047 22.4863 22.1358 22.4863 22.0514C22.4863 21.967 22.4174 21.8981 22.333 21.8981C22.2486 21.8981 22.1797 21.967 22.1797 22.0514Z" fill="#F55B5D"/>
</g>
</g>
</g>
</g>
<g id="face_2">
<g id="Group_60">
<path id="Vector_45" d="M30.9678 34.6572C26.117 33.2162 22.6918 30.6683 19.5343 29.5206C16.3769 30.6683 12.9517 33.2162 8.10086 34.6572C0.403722 36.9423 -1.51929 26.6616 3.9743 23.0757C8.80987 19.9209 8.23348 19.393 9.49848 13.9835C9.5801 13.6316 9.66936 13.2618 9.77138 12.8665C9.88104 12.4329 10.0009 11.9738 10.1361 11.4841C10.2151 11.1985 10.2993 10.923 10.386 10.6553C11.7071 6.595 15.4919 4.03183 19.5369 4.17211C23.5818 4.03183 27.3667 6.595 28.6878 10.6553C28.7745 10.9205 28.8561 11.1985 28.9377 11.4841C29.0729 11.9738 29.1953 12.4329 29.3024 12.8665C29.4019 13.2618 29.4911 13.6341 29.5753 13.9835C30.8403 19.3955 30.2639 19.9209 35.0995 23.0757C40.5905 26.6591 38.665 36.9398 30.9678 34.6572Z" fill="#5A184A"/>
</g>
<g id="Group_61">
<g id="Group_62">
<g id="Group_63">
<g id="Group_64">
<path id="Vector_46" d="M39.4122 40.0018H1.40601C1.40601 40.0018 1.91609 37.584 2.64295 35.156C3.36982 32.728 4.87201 31.7104 6.81798 31.2131C7.36631 31.0728 8.37117 30.7795 9.53161 30.4352C10.1871 30.2388 10.8961 30.0246 11.5974 29.8129C14.0458 29.0682 16.4356 28.326 16.4356 28.326L20.3887 28.0097L20.4117 28.0072L20.4346 28.0097L24.0001 28.2954C24.0001 28.2954 26.145 28.9381 28.4863 29.6318C30.6847 30.2796 33.0591 30.9733 34.0002 31.2156C35.9462 31.7155 37.4484 32.7306 38.1753 35.1585C38.9021 37.584 39.4122 40.0018 39.4122 40.0018Z" fill="#E9356E"/>
</g>
</g>
<g id="Group_65">
<g id="Group_66">
<g id="Group_67">
<g id="Group_68">
<g id="Group_69">
<g id="Group_70">
<path id="Vector_47" d="M5.58101 34.8536C5.53766 34.8536 5.49685 34.8408 5.46115 34.8128L4.45373 34.0247C4.36957 33.9584 4.35427 33.836 4.42058 33.7493C4.48689 33.6651 4.60931 33.6498 4.69602 33.7161L5.70343 34.5042C5.7876 34.5705 5.8029 34.6929 5.73659 34.7796C5.69578 34.8281 5.63967 34.8536 5.58101 34.8536Z" fill="#C4205C"/>
</g>
</g>
</g>
</g>
</g>
<g id="Group_71">
<g id="Group_72">
<g id="Group_73">
<g id="Group_74">
<g id="Group_75">
<path id="Vector_48" d="M5.58101 39.1103C5.53766 39.1103 5.49685 39.0976 5.46115 39.0695L4.45373 38.2814C4.36957 38.2151 4.35427 38.0927 4.42058 38.006C4.48689 37.9218 4.60931 37.9065 4.69602 37.9728L5.70343 38.7609C5.7876 38.8272 5.8029 38.9496 5.73659 39.0363C5.69578 39.0848 5.63967 39.1103 5.58101 39.1103Z" fill="#C4205C"/>
</g>
</g>
</g>
</g>
</g>
<g id="Group_76">
<g id="Group_77">
<g id="Group_78">
<g id="Group_79">
<g id="Group_80">
<path id="Vector_49" d="M11.4622 33.2928C11.4265 33.2928 11.3908 33.2826 11.3602 33.2647C11.2684 33.2086 11.2403 33.0862 11.2964 32.9944L11.9672 31.9054C12.0233 31.8135 12.1457 31.7855 12.2375 31.8416C12.3294 31.8977 12.3574 32.0201 12.3013 32.112L11.6305 33.201C11.5923 33.2596 11.5285 33.2928 11.4622 33.2928Z" fill="#C4205C"/>
</g>
</g>
</g>
</g>
</g>
<g id="Group_81">
<g id="Group_82">
<g id="Group_83">
<g id="Group_84">
<g id="Group_85">
<path id="Vector_50" d="M8.2359 37.5341C8.20019 37.5341 8.16448 37.5239 8.13388 37.5061C8.04207 37.45 8.01401 37.3275 8.07012 37.2357L8.74088 36.1467C8.79699 36.0549 8.91941 36.0268 9.01122 36.0829C9.10304 36.139 9.13109 36.2615 9.07498 36.3533L8.40422 37.4423C8.36597 37.501 8.30221 37.5341 8.2359 37.5341Z" fill="#C4205C"/>
</g>
</g>
</g>
</g>
</g>
<g id="Group_86">
<g id="Group_87">
<g id="Group_88">
<g id="Group_89">
<g id="Group_90">
<path id="Vector_51" d="M9.67184 32.1935C9.68459 32.2267 9.68714 32.2624 9.67949 32.3006C9.65909 32.4078 9.55452 32.4741 9.44996 32.4537L8.19516 32.2012C8.08804 32.1808 8.02173 32.0762 8.04213 31.9716C8.06253 31.8645 8.1671 31.7982 8.27167 31.8186L9.52647 32.0711C9.59533 32.0839 9.64889 32.1323 9.67184 32.1935Z" fill="#C4205C"/>
</g>
</g>
</g>
</g>
</g>
<g id="Group_91">
<g id="Group_92">
<g id="Group_93">
<g id="Group_94">
<g id="Group_95">
<path id="Vector_52" d="M13.9923 36.9731C13.9489 36.9731 13.9081 36.9604 13.8724 36.9323L12.865 36.1442C12.7808 36.0779 12.7655 35.9555 12.8318 35.8688C12.8981 35.7846 13.0206 35.7693 13.1073 35.8356L14.1147 36.6237C14.1989 36.69 14.2142 36.8124 14.1478 36.8991C14.107 36.9476 14.0509 36.9731 13.9923 36.9731Z" fill="#C4205C"/>
</g>
</g>
</g>
</g>
</g>
<g id="Group_96">
<g id="Group_97">
<g id="Group_98">
<g id="Group_99">
<g id="Group_100">
<path id="Vector_53" d="M10.3885 39.0796C10.363 39.0643 10.34 39.0414 10.3247 39.0133C10.2712 38.919 10.3018 38.7991 10.3961 38.7455L11.5056 38.1079C11.5999 38.0544 11.7198 38.085 11.7734 38.1793C11.8269 38.2737 11.7963 38.3936 11.7019 38.4471L10.5925 39.0847C10.5262 39.1204 10.4497 39.1153 10.3885 39.0796Z" fill="#C4205C"/>
</g>
</g>
</g>
</g>
</g>
<g id="Group_101">
<g id="Group_102">
<g id="Group_103">
<g id="Group_104">
<g id="Group_105">
<path id="Vector_54" d="M27.846 34.8536C27.8027 34.8536 27.7619 34.8408 27.7262 34.8128L26.7187 34.0247C26.6346 33.9584 26.6193 33.836 26.6856 33.7493C26.7519 33.6651 26.8743 33.6498 26.961 33.7161L27.9685 34.5042C28.0526 34.5705 28.0679 34.6929 28.0016 34.7796C27.9608 34.8281 27.9047 34.8536 27.846 34.8536Z" fill="#C4205C"/>
</g>
</g>
</g>
</g>
</g>
<g id="Group_106">
<g id="Group_107">
<g id="Group_108">
<g id="Group_109">
<g id="Group_110">
<path id="Vector_55" d="M27.846 39.1103C27.8027 39.1103 27.7619 39.0976 27.7262 39.0695L26.7187 38.2814C26.6346 38.2151 26.6193 38.0927 26.6856 38.006C26.7519 37.9218 26.8743 37.9065 26.961 37.9728L27.9685 38.7609C28.0526 38.8272 28.0679 38.9496 28.0016 39.0363C27.9608 39.0848 27.9047 39.1103 27.846 39.1103Z" fill="#C4205C"/>
</g>
</g>
</g>
</g>
</g>
<g id="Group_111">
<g id="Group_112">
<g id="Group_113">
<g id="Group_114">
<g id="Group_115">
<path id="Vector_56" d="M33.7298 33.2928C33.6941 33.2928 33.6584 33.2826 33.6278 33.2647C33.536 33.2086 33.5079 33.0862 33.564 32.9944L34.2348 31.9054C34.2909 31.8135 34.4133 31.7855 34.5051 31.8416C34.5969 31.8977 34.625 32.0201 34.5689 32.112L33.8981 33.201C33.8573 33.2596 33.7936 33.2928 33.7298 33.2928Z" fill="#C4205C"/>
</g>
</g>
</g>
</g>
</g>
<g id="Group_116">
<g id="Group_117">
<g id="Group_118">
<g id="Group_119">
<g id="Group_120">
<path id="Vector_57" d="M30.5036 37.5341C30.4679 37.5341 30.4322 37.5239 30.4016 37.5061C30.3098 37.45 30.2817 37.3275 30.3378 37.2357L31.0086 36.1467C31.0647 36.0549 31.1871 36.0268 31.2789 36.0829C31.3707 36.139 31.3988 36.2615 31.3427 36.3533L30.6719 37.4423C30.6337 37.501 30.5699 37.5341 30.5036 37.5341Z" fill="#C4205C"/>
</g>
</g>
</g>
</g>
</g>
<g id="Group_121">
<g id="Group_122">
<g id="Group_123">
<g id="Group_124">
<g id="Group_125">
<path id="Vector_58" d="M37.3692 39.3347C37.3335 39.3347 37.2978 39.3245 37.2672 39.3066C37.1754 39.2505 37.1473 39.1281 37.2034 39.0363L37.8742 37.9472C37.9303 37.8554 38.0527 37.8274 38.1445 37.8835C38.2363 37.9396 38.2644 38.062 38.2083 38.1538L37.5375 39.2428C37.4993 39.3015 37.4355 39.3347 37.3692 39.3347Z" fill="#C4205C"/>
</g>
</g>
</g>
</g>
</g>
<g id="Group_126">
<g id="Group_127">
<g id="Group_128">
<g id="Group_129">
<g id="Group_130">
<path id="Vector_59" d="M31.9369 32.1935C31.9496 32.2267 31.9522 32.2624 31.9445 32.3006C31.9241 32.4078 31.8195 32.4741 31.715 32.4537L30.4602 32.2012C30.3531 32.1808 30.2867 32.0762 30.3071 31.9716C30.3275 31.8645 30.4321 31.7982 30.5367 31.8186L31.7915 32.0711C31.8603 32.0839 31.9139 32.1323 31.9369 32.1935Z" fill="#C4205C"/>
</g>
</g>
</g>
</g>
</g>
<g id="Group_131">
<g id="Group_132">
<g id="Group_133">
<g id="Group_134">
<g id="Group_135">
<path id="Vector_60" d="M36.2573 36.1645C36.2139 36.1645 36.1731 36.1518 36.1374 36.1237L35.13 35.3356C35.0458 35.2693 35.0305 35.1469 35.0968 35.0602C35.1632 34.976 35.2856 34.9607 35.3723 35.027L36.3797 35.8151C36.4639 35.8814 36.4792 36.0038 36.4129 36.0905C36.3746 36.139 36.3159 36.1645 36.2573 36.1645Z" fill="#C4205C"/>
</g>
</g>
</g>
</g>
</g>
<g id="Group_136">
<g id="Group_137">
<g id="Group_138">
<g id="Group_139">
<g id="Group_140">
<path id="Vector_61" d="M32.6561 39.0796C32.6306 39.0643 32.6076 39.0414 32.5923 39.0133C32.5387 38.919 32.5693 38.7991 32.6637 38.7455L33.7731 38.1079C33.8675 38.0544 33.9874 38.085 34.0409 38.1793C34.0945 38.2737 34.0639 38.3936 33.9695 38.4471L32.8601 39.0847C32.7938 39.1204 32.7147 39.1153 32.6561 39.0796Z" fill="#C4205C"/>
</g>
</g>
</g>
</g>
</g>
<g id="Group_141">
<g id="Group_142">
<g id="Group_143">
<g id="Group_144">
<g id="Group_145">
<path id="Vector_62" d="M20.3937 35.5933C20.358 35.5933 20.3223 35.5831 20.2917 35.5653C20.1999 35.5092 20.1718 35.3867 20.228 35.2949L20.8987 34.2059C20.9548 34.1141 21.0772 34.086 21.1691 34.1421C21.2609 34.1983 21.2889 34.3207 21.2328 34.4125L20.5621 35.5015C20.5238 35.5602 20.46 35.5933 20.3937 35.5933Z" fill="#C4205C"/>
</g>
</g>
</g>
</g>
</g>
<g id="Group_146">
<g id="Group_147">
<g id="Group_148">
<g id="Group_149">
<g id="Group_150">
<path id="Vector_63" d="M17.2847 39.0134C17.249 39.0134 17.2133 39.0032 17.1827 38.9853C17.0909 38.9292 17.0628 38.8068 17.1189 38.715L17.7897 37.6259C17.8458 37.5341 17.9682 37.5061 18.06 37.5622C18.1519 37.6183 18.1799 37.7407 18.1238 37.8325L17.4531 38.9215C17.4148 38.9802 17.351 39.0134 17.2847 39.0134Z" fill="#C4205C"/>
</g>
</g>
</g>
</g>
</g>
<g id="Group_151">
<g id="Group_152">
<g id="Group_153">
<g id="Group_154">
<g id="Group_155">
<path id="Vector_64" d="M17.5296 34.9123C17.5424 34.9454 17.5449 34.9811 17.5373 35.0194C17.5169 35.1265 17.4123 35.1928 17.3077 35.1724L16.0529 34.9199C15.9458 34.8995 15.8795 34.795 15.8999 34.6904C15.9203 34.5833 16.0249 34.517 16.1295 34.5374L17.3843 34.7899C17.4531 34.8026 17.5067 34.8511 17.5296 34.9123Z" fill="#C4205C"/>
</g>
</g>
</g>
</g>
</g>
<g id="Group_156">
<g id="Group_157">
<g id="Group_158">
<g id="Group_159">
<g id="Group_160">
<path id="Vector_65" d="M24.8824 36.0345C24.8391 36.0345 24.7982 36.0217 24.7625 35.9937L23.7551 35.2056C23.671 35.1393 23.6557 35.0169 23.722 34.9302C23.7883 34.846 23.9107 34.8307 23.9974 34.897L25.0048 35.6851C25.089 35.7514 25.1043 35.8738 25.038 35.9605C24.9972 36.009 24.9411 36.0345 24.8824 36.0345Z" fill="#C4205C"/>
</g>
</g>
</g>
</g>
</g>
<g id="Group_161">
<g id="Group_162">
<g id="Group_163">
<g id="Group_164">
<g id="Group_165">
<path id="Vector_66" d="M21.0568 39.1255C21.0313 39.1102 21.0084 39.0873 20.9931 39.0592C20.9395 38.9649 20.9701 38.845 21.0645 38.7914L22.1739 38.1538C22.2683 38.1003 22.3881 38.1309 22.4417 38.2252C22.4953 38.3196 22.4646 38.4395 22.3703 38.493L21.2609 39.1306C21.1945 39.1689 21.118 39.1638 21.0568 39.1255Z" fill="#C4205C"/>
</g>
</g>
</g>
</g>
</g>
</g>
</g>
<g id="Group_166">
<path id="Vector_67" d="M20.4323 28.0006V28.0058L20.4116 28.0032L20.4323 28.0006Z" fill="#5D46C2"/>
</g>
<g id="Group_167">
<path id="Vector_68" d="M20.4119 28.0032L20.3887 28.0058V28.0006L20.4119 28.0032Z" fill="#5D46C2"/>
</g>
</g>
<g id="Group_168">
<g id="Group_169">
<g id="Group_170">
<path id="Vector_69" d="M23.9363 29.2605C23.9363 29.2605 22.9518 31.1019 20.2025 31.1019C17.5449 31.1019 16.4279 29.1687 16.4279 29.1687L16.5911 27.845L16.6191 27.6231L16.8742 25.5369L23.4491 25.7205L23.5588 26.5137L23.5945 26.7738L23.9363 29.2605Z" fill="#FF8881"/>
</g>
<g id="Group_171">
<path id="Vector_70" d="M26.5148 32.1092C24.88 34.2159 21.3298 33.0809 20.177 31.5405C19.0242 33.0809 15.4766 34.2133 13.8393 32.1092C12.2631 30.0816 16.5325 28.3142 16.5325 28.3142C16.9686 30.278 19.3634 30.908 20.177 31.061C20.9906 30.908 23.3701 30.2806 23.8063 28.3142C23.8037 28.3142 28.0884 30.0791 26.5148 32.1092Z" fill="#F5EFFF"/>
</g>
<g id="Group_172">
<path id="Vector_71" d="M23.5538 26.5111C22.0644 27.7736 19.6542 28.253 16.5886 27.8424L16.6167 27.6205L16.8717 25.5343L23.4467 25.7179L23.5538 26.5111Z" fill="#19274B"/>
</g>
</g>
<g id="Group_173">
<g id="Group_174">
<path id="Vector_72" d="M14.4029 20.1096C12.9313 22.1626 9.76621 20.7752 9.98045 18.0514C10.1768 15.58 12.9364 15.9728 12.9364 15.9728L14.4029 20.1096Z" fill="#F55B5D"/>
</g>
<g id="Group_175">
<path id="Vector_73" d="M12.8752 21.1756C12.8752 21.6806 12.4671 22.0887 11.9621 22.0887C11.4571 22.0887 11.0491 21.6806 11.0491 21.1756C11.0491 20.6706 11.4571 20.2626 11.9621 20.2626C12.4671 20.2626 12.8752 20.6706 12.8752 21.1756Z" fill="#FFAC32"/>
</g>
<g id="Group_176">
<path id="Vector_74" d="M13.0487 20.1606C12.9594 20.1606 12.8803 20.0994 12.8574 20.0101C12.5717 18.8421 11.3552 17.7479 11.345 17.7377C11.2634 17.6663 11.2557 17.5414 11.3297 17.4597C11.4011 17.3781 11.5261 17.3705 11.6077 17.4444C11.6612 17.4929 12.9262 18.6278 13.2425 19.9158C13.268 20.0204 13.2042 20.1275 13.0997 20.153C13.0793 20.1581 13.064 20.1606 13.0487 20.1606Z" fill="#D1373F"/>
</g>
<g id="Group_177">
<path id="Vector_75" d="M12.5436 19.0511C12.5232 19.0511 12.5028 19.0485 12.4824 19.0409C11.9443 18.8598 11.4317 18.9695 11.4266 18.972C11.322 18.995 11.2174 18.9287 11.1919 18.8241C11.169 18.7195 11.2353 18.615 11.3398 18.5895C11.3653 18.5844 11.9621 18.4543 12.6074 18.6711C12.7094 18.7042 12.7655 18.8165 12.7324 18.9185C12.7018 18.9975 12.6253 19.0511 12.5436 19.0511Z" fill="#D1373F"/>
</g>
</g>
<g id="Group_178">
<g id="Group_179">
<path id="Vector_76" d="M25.2905 20.1096C26.7621 22.1626 29.9272 20.7752 29.7129 18.0514C29.5166 15.58 26.757 15.9728 26.757 15.9728L25.2905 20.1096Z" fill="#F55B5D"/>
</g>
<g id="Group_180">
<path id="Vector_77" d="M28.726 21.1756C28.726 21.6806 28.3179 22.0887 27.813 22.0887C27.308 22.0887 26.8999 21.6806 26.8999 21.1756C26.8999 20.6706 27.308 20.2626 27.813 20.2626C28.3179 20.2626 28.726 20.6706 28.726 21.1756Z" fill="#FFAC32"/>
</g>
<g id="Group_181">
<path id="Vector_78" d="M26.6448 20.1606C26.6295 20.1606 26.6142 20.158 26.5989 20.1555C26.4943 20.13 26.428 20.0228 26.456 19.9183C26.7723 18.6303 28.0373 17.4928 28.0909 17.4469C28.1725 17.3755 28.2949 17.3832 28.3688 17.4622C28.4403 17.5438 28.4326 17.6663 28.3535 17.7402C28.3408 17.7504 27.1268 18.842 26.8412 20.0126C26.8131 20.1019 26.7315 20.1606 26.6448 20.1606Z" fill="#D1373F"/>
</g>
<g id="Group_182">
<path id="Vector_79" d="M27.1498 19.0512C27.0682 19.0512 26.9917 19.0002 26.9636 18.916C26.9305 18.814 26.984 18.7018 27.0886 18.6686C27.7339 18.4519 28.3307 18.5819 28.3562 18.587C28.4607 18.61 28.5296 18.7146 28.5041 18.8217C28.4811 18.9262 28.3766 18.9925 28.2694 18.9696C28.2643 18.9696 27.7517 18.8599 27.2136 19.0385C27.1932 19.0461 27.1702 19.0512 27.1498 19.0512Z" fill="#D1373F"/>
</g>
</g>
<g id="Group_183">
<path id="Vector_80" d="M12.3523 12.9684C12.3523 12.9684 11.6331 17.4214 13.4949 21.7775C15.1807 25.7255 17.4251 26.9548 19.8148 26.9931C22.531 27.0364 28.2184 25.4654 27.3181 12.5782C26.7086 3.87106 13.0715 4.17966 12.3523 12.9684Z" fill="#FF8881"/>
</g>
<g id="Group_184">
<path id="Vector_81" d="M11.9622 14.9373C11.9622 14.9373 12.105 17.6969 13.2501 17.5923C14.3952 17.4877 13.8393 11.275 13.8393 11.275C13.8393 11.275 14.8594 12.7797 16.7212 12.6165C18.583 12.4532 16.8947 10.0329 16.8947 10.0329C16.8947 10.0329 18.6111 12.4201 20.1847 12.3232C21.7557 12.2263 20.1847 9.28053 20.1847 9.28053C20.1847 9.28053 22.2378 12.6165 23.7144 12.5196C25.1911 12.4226 23.9414 9.64269 23.9414 9.64269C23.9414 9.64269 25.1172 12.7185 26.2394 12.9455C26.2394 12.9455 25.9563 17.475 27.1575 17.2837C28.3562 17.0924 27.9124 12.0299 27.4202 10.492C26.928 8.95408 24.2832 5.09531 19.1951 5.58499C14.0994 6.07467 12.054 8.88777 11.9622 14.9373Z" fill="#5A184A"/>
</g>
<g id="Group_185">
<path id="Vector_82" d="M14.8875 15.2255C14.8875 15.2255 15.928 13.7769 17.721 13.5907C18.0117 13.5601 18.2693 13.7845 18.2871 14.0753V14.0804C18.305 14.3762 18.0704 14.6262 17.7745 14.6313C17.1012 14.6389 15.9204 14.7358 14.8875 15.2255Z" fill="#5A184A"/>
</g>
<g id="Group_186">
<path id="Vector_83" d="M24.9463 15.2255C24.9463 15.2255 23.9057 13.7769 22.1128 13.5907C21.8221 13.5601 21.5645 13.7845 21.5466 14.0753V14.0804C21.5288 14.3762 21.7634 14.6262 22.0592 14.6313C22.7326 14.6389 23.9159 14.7358 24.9463 15.2255Z" fill="#5A184A"/>
</g>
<g id="Group_187">
<path id="Vector_84" d="M20.1514 24.6824C19.5929 24.6824 19.1491 24.4861 19.1211 24.4733C19.0394 24.435 19.0012 24.3381 19.0394 24.2565C19.0777 24.1749 19.1746 24.1366 19.2562 24.1749C19.2715 24.18 20.2764 24.6212 21.0849 24.0907C21.1614 24.0423 21.2609 24.0627 21.3119 24.1366C21.3603 24.2132 21.3399 24.3126 21.266 24.3636C20.8936 24.6059 20.5008 24.6824 20.1514 24.6824Z" fill="#F55B5D"/>
</g>
<g id="Group_188">
<path id="Vector_85" d="M20.7304 20.5152C20.7253 20.5152 20.7228 20.5152 20.7177 20.5152L19.5215 20.4182C19.4323 20.4106 19.3634 20.3315 19.3711 20.2423C19.3787 20.153 19.4578 20.0867 19.547 20.0918L20.5468 20.1734L20.2357 17.1333C20.2255 17.044 20.2918 16.9624 20.381 16.9548C20.4703 16.9446 20.5519 17.0109 20.5596 17.1001L20.8911 20.3366C20.8962 20.3851 20.8784 20.4335 20.8452 20.4667C20.8171 20.4973 20.7738 20.5152 20.7304 20.5152Z" fill="#F55B5D"/>
</g>
<g id="Group_189">
<path id="Vector_86" d="M17.5858 21.8184C19.0574 22.0479 20.5545 22.1474 22.5591 21.7495C22.5591 21.7495 22.3857 23.8919 20.0062 23.8995C17.9837 23.9072 17.5858 21.8184 17.5858 21.8184Z" fill="#F5EFFF"/>
</g>
<g id="Group_190">
<path id="Vector_87" d="M17.4685 17.1153C17.4685 17.6815 17.2109 18.1432 16.8921 18.1432C16.5733 18.1432 16.3157 17.6841 16.3157 17.1153C16.3157 16.5491 16.5733 16.0875 16.8921 16.0875C17.2109 16.0901 17.4685 16.5491 17.4685 17.1153Z" fill="#19274B"/>
</g>
<g id="Group_191">
<path id="Vector_88" d="M23.0156 18.1432C23.3339 18.1432 23.592 17.683 23.592 17.1153C23.592 16.5477 23.3339 16.0875 23.0156 16.0875C22.6973 16.0875 22.4392 16.5477 22.4392 17.1153C22.4392 17.683 22.6973 18.1432 23.0156 18.1432Z" fill="#19274B"/>
</g>
<g id="Group_192">
<g id="Group_193">
<path id="Vector_89" d="M15.3644 19.222C15.3644 19.3189 15.2853 19.398 15.1884 19.398C15.0915 19.398 15.0125 19.3189 15.0125 19.222C15.0125 19.1251 15.0915 19.046 15.1884 19.046C15.2853 19.046 15.3644 19.1251 15.3644 19.222Z" fill="#F55B5D"/>
</g>
<g id="Group_194">
<path id="Vector_90" d="M16.0479 19.8239C16.1451 19.8239 16.2239 19.7451 16.2239 19.6479C16.2239 19.5507 16.1451 19.4719 16.0479 19.4719C15.9507 19.4719 15.8719 19.5507 15.8719 19.6479C15.8719 19.7451 15.9507 19.8239 16.0479 19.8239Z" fill="#F55B5D"/>
</g>
<g id="Group_195">
<path id="Vector_91" d="M15.3644 20.2626C15.3644 20.3595 15.2853 20.4386 15.1884 20.4386C15.0915 20.4386 15.0125 20.3595 15.0125 20.2626C15.0125 20.1657 15.0915 20.0866 15.1884 20.0866C15.2853 20.0841 15.3644 20.1657 15.3644 20.2626Z" fill="#F55B5D"/>
</g>
<g id="Group_196">
<path id="Vector_92" d="M16.7188 20.4386C16.7188 20.5355 16.6397 20.6145 16.5428 20.6145C16.4459 20.6145 16.3668 20.5355 16.3668 20.4386C16.3668 20.3416 16.4459 20.2626 16.5428 20.2626C16.6397 20.2626 16.7188 20.3416 16.7188 20.4386Z" fill="#F55B5D"/>
</g>
<g id="Group_197">
<path id="Vector_93" d="M17.6215 20.2626C17.6215 20.3595 17.5424 20.4386 17.4455 20.4386C17.3486 20.4386 17.2695 20.3595 17.2695 20.2626C17.2695 20.1657 17.3486 20.0866 17.4455 20.0866C17.5424 20.0841 17.6215 20.1657 17.6215 20.2626Z" fill="#F55B5D"/>
</g>
<g id="Group_198">
<path id="Vector_94" d="M17.2108 19.398C17.2108 19.4949 17.1318 19.574 17.0349 19.574C16.9379 19.574 16.8589 19.4949 16.8589 19.398C16.8589 19.3011 16.9379 19.222 17.0349 19.222C17.1318 19.222 17.2108 19.3011 17.2108 19.398Z" fill="#F55B5D"/>
</g>
</g>
<g id="Group_199">
<g id="Group_200">
<path id="Vector_95" d="M24.8876 19.222C24.8876 19.3189 24.9666 19.398 25.0636 19.398C25.1605 19.398 25.2395 19.3189 25.2395 19.222C25.2395 19.1251 25.1605 19.046 25.0636 19.046C24.9666 19.046 24.8876 19.1251 24.8876 19.222Z" fill="#F55B5D"/>
</g>
<g id="Group_201">
<path id="Vector_96" d="M24.2041 19.8239C24.3012 19.8239 24.38 19.7451 24.38 19.6479C24.38 19.5507 24.3012 19.4719 24.2041 19.4719C24.1069 19.4719 24.0281 19.5507 24.0281 19.6479C24.0281 19.7451 24.1069 19.8239 24.2041 19.8239Z" fill="#F55B5D"/>
</g>
<g id="Group_202">
<path id="Vector_97" d="M24.8876 20.2626C24.8876 20.3595 24.9666 20.4386 25.0636 20.4386C25.1605 20.4386 25.2395 20.3595 25.2395 20.2626C25.2395 20.1657 25.1605 20.0866 25.0636 20.0866C24.9666 20.0841 24.8876 20.1657 24.8876 20.2626Z" fill="#F55B5D"/>
</g>
<g id="Group_203">
<path id="Vector_98" d="M23.5333 20.4386C23.5333 20.5355 23.6124 20.6145 23.7093 20.6145C23.8062 20.6145 23.8853 20.5355 23.8853 20.4386C23.8853 20.3416 23.8062 20.2626 23.7093 20.2626C23.6124 20.2626 23.5333 20.3416 23.5333 20.4386Z" fill="#F55B5D"/>
</g>
<g id="Group_204">
<path id="Vector_99" d="M22.6305 20.2626C22.6305 20.3595 22.7096 20.4386 22.8065 20.4386C22.9034 20.4386 22.9825 20.3595 22.9825 20.2626C22.9825 20.1657 22.9034 20.0866 22.8065 20.0866C22.7096 20.0841 22.6305 20.1657 22.6305 20.2626Z" fill="#F55B5D"/>
</g>
<g id="Group_205">
<path id="Vector_100" d="M23.0411 19.398C23.0411 19.4949 23.1202 19.574 23.2171 19.574C23.314 19.574 23.3931 19.4949 23.3931 19.398C23.3931 19.3011 23.314 19.222 23.2171 19.222C23.1202 19.222 23.0411 19.3011 23.0411 19.398Z" fill="#F55B5D"/>
</g>
</g>
<g id="Group_206">
<g id="Group_207">
<path id="Vector_101" d="M16.6626 20.4794C15.0737 20.4794 13.7781 19.1863 13.7781 17.5948C13.7781 16.0059 15.0711 14.7103 16.6626 14.7103C18.2515 14.7103 19.5471 16.0034 19.5471 17.5948C19.5446 19.1863 18.2515 20.4794 16.6626 20.4794ZM16.6626 14.973C15.2165 14.973 14.0408 16.1488 14.0408 17.5948C14.0408 19.0409 15.2165 20.2167 16.6626 20.2167C18.1087 20.2167 19.2844 19.0409 19.2844 17.5948C19.2844 16.1488 18.1061 14.973 16.6626 14.973Z" fill="#F5EFFF"/>
</g>
<g id="Group_208">
<path id="Vector_102" d="M23.6047 20.4794C22.0158 20.4794 20.7202 19.1863 20.7202 17.5948C20.7202 16.0059 22.0133 14.7103 23.6047 14.7103C25.1936 14.7103 26.4892 16.0034 26.4892 17.5948C26.4867 19.1863 25.1936 20.4794 23.6047 20.4794ZM23.6047 14.973C22.1586 14.973 20.9829 16.1488 20.9829 17.5948C20.9829 19.0409 22.1586 20.2167 23.6047 20.2167C25.0508 20.2167 26.2265 19.0409 26.2265 17.5948C26.2265 16.1488 25.0508 14.973 23.6047 14.973Z" fill="#F5EFFF"/>
</g>
<g id="Group_209">
<path id="Vector_103" d="M26.1935 16.7914C26.1628 16.7914 26.1297 16.7812 26.1042 16.7582C26.0506 16.7098 26.0481 16.6256 26.0965 16.5746C26.1322 16.5364 26.9841 15.6157 28.2618 15.8273C28.3332 15.8401 28.3817 15.9064 28.369 15.9778C28.3562 16.0492 28.2899 16.0977 28.2185 16.0849C27.081 15.8988 26.298 16.7429 26.2904 16.7506C26.2649 16.7761 26.2292 16.7914 26.1935 16.7914Z" fill="#F5EFFF"/>
</g>
<g id="Group_210">
<path id="Vector_104" d="M14.0918 16.7378C14.0586 16.7378 14.0229 16.7251 13.9974 16.697C13.9821 16.6817 12.9517 15.6514 11.6816 16.0773C11.6128 16.1002 11.5388 16.0645 11.5159 15.9957C11.4929 15.9268 11.5286 15.8529 11.5975 15.8299C13.0308 15.3504 14.1377 16.4675 14.1861 16.516C14.2371 16.567 14.2346 16.6511 14.1836 16.7021C14.1581 16.7251 14.1249 16.7378 14.0918 16.7378Z" fill="#F5EFFF"/>
</g>
<g id="Group_211">
<path id="Vector_105" d="M19.4144 17.3322C19.4119 17.3322 19.4093 17.3322 19.4068 17.3322C19.3354 17.3271 19.2793 17.2659 19.2844 17.1919C19.2997 16.9624 19.4961 16.5288 20.1337 16.5288C20.7713 16.5288 20.9677 16.9624 20.983 17.1919C20.9881 17.2633 20.9319 17.3271 20.8605 17.3322C20.7891 17.3373 20.7254 17.2812 20.7203 17.2098C20.7177 17.169 20.6693 16.7915 20.1311 16.7915C19.5777 16.7915 19.5445 17.1919 19.5445 17.2098C19.5394 17.2786 19.4833 17.3322 19.4144 17.3322Z" fill="#F5EFFF"/>
</g>
</g>
</g>
</g>
</g>
</g>
</svg>
